<svg xmlns="http://www.w3.org/2000/svg" width="2500" height="2500" viewBox="0 0 192.76 192.76"><g fill-rule="evenodd" clip-rule="evenodd"><path fill="#cc2229" d="M151 129v22.94h-8.43v-22.93zm-27.12 5.05c4.58 0 8.33 2.8 8.33 6.24s-3.75 6.25-8.33 6.25-8.33-2.8-8.33-6.25c0-3.44 3.76-6.24 8.33-6.24m2.23-5.04-6.92-7.8h10.32l9.5 12.84a11.7 11.7 0 0 1 1.73 5.8c.34 6.94-7.59 12.66-16.86 12.66s-16.85-5.7-16.85-12.66c0-6.98 6.8-12.43 19.08-10.84m-39.67 12.84c0 3.12 2.89 4.7 5.27 4.7s5.54-1.76 5.54-4.7v-12.84h7.99v12.84c0 8.9-7.88 10.7-13.53 10.7s-13.69-1.8-13.69-10.7v-12.84h8.42zM61.1 121.2l19.4 30.74h-9.68l-3.41-5.4H48.65l-3.54 5.4h-9.88l18.06-27.78-2.74-2.96zm2.86 19.81H52.2l5.96-9.14z"/><path fill="#fff" d="M149.98 97.62c2.38.19 4.6-.05 6.93-.59a28 28 0 0 0 3.85-1.4 26 26 0 0 0 3.45-2.1 27 27 0 0 0 2.98-2.72 27 27 0 0 0 2.41-3.22 25 25 0 0 0 2.1-4.63c.38-1.36.67-2.69.84-4.08q.12-1.6.08-3.21a26 26 0 0 0-.91-5.15 40 40 0 0 0-1.13-2.85 25 25 0 0 0-3.39-5.02 28 28 0 0 0-2.98-2.7 25 25 0 0 0-4.37-2.53 28 28 0 0 0-3.93-1.22 28 28 0 0 0-5.74-.43 20 20 0 0 0-9.2 3.03l-.58.45a33 33 0 0 1 5.01 14.43 30.6 30.6 0 0 1-5.24 20.43 19.6 19.6 0 0 0 9.82 3.5m-15.47-27.84a24 24 0 0 0-1.25-2.83 21 21 0 0 0-2.3 6.78q-.32 2.04-.2 4.13a21 21 0 0 0 2.55 8.55c.9-1.81 1.58-3.6 2-5.59.68-3.4.47-7-.56-10.33zm-16.43 27.64a23 23 0 0 0 7.35-2.6l.9-.54c-.5-.68-.93-1.45-1.35-2.18a32 32 0 0 1-3.18-7.93 34 34 0 0 1-.83-4.91 31 31 0 0 1 .3-7.5c.76-4.48 2.43-8.7 4.99-12.45a20.6 20.6 0 0 0-9.81-3.46c-4.61-.35-9.11.71-12.99 3.21 2.75 4.14 4.45 9 5.14 13.9.15 1.5.25 2.91.24 4.41q-.13 4.4-1.45 8.62a34 34 0 0 1-4.03 8.35 21 21 0 0 0 14.72 3.08m-20.3-27.83a19 19 0 0 0-1.34-2.9 24 24 0 0 0-1.93 4.8 19 19 0 0 0-.39 8.62 24 24 0 0 0 2.39 6.52c.7-1.37 1.3-2.8 1.71-4.27.38-1.49.65-2.93.74-4.45a21 21 0 0 0-1.18-8.32m-12.93-.35a32 32 0 0 1 3.84-8.94l.67-.99.1-.15a23 23 0 0 0-7.72-3.03c-2-.4-4.18-.43-6.2-.27-2.83.4-5.52 1.28-7.94 2.78q-.46.29-.87.61a33 33 0 0 1 4.44 10.78 33 33 0 0 1 .74 6.1 33 33 0 0 1-.4 5.57 35 35 0 0 1-.81 3.56 31 31 0 0 1-4.2 8.86c6.6 4.71 16.23 4.76 22.9.15-2.56-3.82-4.3-8-5.06-12.53a31 31 0 0 1-.08-9.45q.24-1.53.6-3.05m-24.12.2a23 23 0 0 0-1.13-2.49 22 22 0 0 0-2.29 6.78q-.31 2.04-.2 4.13a21 21 0 0 0 2.54 8.55 20.7 20.7 0 0 0 1.08-16.97M47.75 82.36a32 32 0 0 1-.49-7.51A31 31 0 0 1 52.6 59.3a21 21 0 0 0-3.4-1.87A20.7 20.7 0 0 0 37.9 56a32 32 0 0 0-3.03.71 25 25 0 0 0-4.64 2.1A26 26 0 0 0 27 61.25a26 26 0 0 0-2.71 2.98 24 24 0 0 0-2.51 4.37 28 28 0 0 0-1.24 3.93l-.18 1.04a27 27 0 0 0-.2 4.25q.1 1.58.38 3.15a24 24 0 0 0 2.11 5.75 33 33 0 0 0 1.64 2.55 26 26 0 0 0 3.47 3.64 29 29 0 0 0 3.35 2.27 26 26 0 0 0 4.75 1.86q1.52.37 3.08.56c1.15.08 2.26.13 3.4.06a23 23 0 0 0 8.73-2.45l.7-.39.9-.53a28 28 0 0 1-2.2-3.78 33 33 0 0 1-2.73-8.14m122.35 19.06a46 46 0 0 1-3.74 2.41 48 48 0 0 1-4.1 1.84q-2.15.74-4.38 1.25l-1.5.28c-2.66.32-5.32.46-7.98.17a32 32 0 0 1-9.22-2.47 34 34 0 0 1-5.9-3.43 35 35 0 0 1-6.52 3.65 33 33 0 0 1-10.02 2.36 33 33 0 0 1-7.2-.37 33 33 0 0 1-13.2-5.54 31.3 31.3 0 0 1-17.66 5.97 32 32 0 0 1-8.37-.98 32 32 0 0 1-10.7-5.1 37 37 0 0 1-5.35 3.15 31 31 0 0 1-12.5 2.92c-1.8.03-3.57-.12-5.34-.33a45 45 0 0 1-4.48-1.04 49 49 0 0 1-4.2-1.65 44 44 0 0 1-3.87-2.23 41 41 0 0 1-4.56-3.76 47 47 0 0 1-2.92-3.37 47 47 0 0 1-2.4-3.74 53 53 0 0 1-1.86-4.1 47 47 0 0 1-1.25-4.37 48 48 0 0 1-.58-4.62l-.05-1.58.05-1.58.12-1.57.2-1.54.26-1.5.36-1.51.4-1.45.49-1.42.56-1.42.63-1.36.67-1.33.75-1.3.8-1.24.85-1.2.92-1.16q1.46-1.7 3.06-3.23a54 54 0 0 1 3.5-2.75 52 52 0 0 1 3.87-2.22 50 50 0 0 1 4.2-1.67q2.2-.63 4.48-1.02c2.21-.28 4.43-.43 6.66-.3q4.25.3 8.23 1.69a34 34 0 0 1 7.32 3.72l.5.37.42.3a31.4 31.4 0 0 1 15.18-5.97c3.28-.31 6.6-.17 9.82.53a32 32 0 0 1 8.27 3.06 40 40 0 0 1 3.6 2.28 30 30 0 0 1 6.43-3.65 31 31 0 0 1 18.42-1.7 31 31 0 0 1 9.95 4.1q1.02.64 1.98 1.35a32 32 0 0 1 10.1-4.97 32 32 0 0 1 8.4-1.17l1.62.03 1.61.13 1.58.2a47 47 0 0 1 4.55 1.02 41 41 0 0 1 4.24 1.67 40 40 0 0 1 3.88 2.23 43 43 0 0 1 3.46 2.75 39 39 0 0 1 3.02 3.2 40 40 0 0 1 2.52 3.62l.73 1.3.67 1.33.6 1.36.53 1.4.46 1.44.4 1.45c.34 1.52.6 3 .79 4.56q.17 2.36.11 4.72a44 44 0 0 1-.59 4.62l-.35 1.5-.4 1.45-.5 1.42a43 43 0 0 1-1.85 4.1 40 40 0 0 1-3.32 4.9 42 42 0 0 1-3.07 3.23l-1.12.97z"/><path fill="#d0d1d3" d="M60.1 94.03a23.8 23.8 0 0 1-7.15-17.29c0-6.57 2.46-12.43 6.63-16.93a25 25 0 0 1 6.61 16.93c0 4.53-.87 8.35-3 12.01C66.36 78.7 65.44 71.62 61.57 66c.7.99 2.6 6.53 2.25 10.74 0 4.67-1.43 9-3.86 12.61zm121.46-17.28a29.9 29.9 0 0 1-48.27 23.52 30.7 30.7 0 0 1-18.54 6.31 30.8 30.8 0 0 1-18.4-6.2 30.4 30.4 0 0 1-18.3 6.2 30 30 0 0 1-18.42-6.31 30.6 30.6 0 0 1-18.52 6.31c-16.45 0-29.87-13.39-29.87-29.83s13.42-29.87 29.87-29.87c6.93 0 13.33 2.4 18.46 6.4 5.14-4 11.55-6.4 18.48-6.4s13.24 2.38 18.38 6.28a29.8 29.8 0 0 1 18.32-6.28 30 30 0 0 1 18.46 6.4 30 30 0 0 1 18.5-6.4c17.06 0 29.85 13.38 29.85 29.87M151.71 50c-5.06 0-9.7 1.44-13.72 3.95 6.56-5.24 17.1-6.38 29.21-2.15a30.7 30.7 0 0 0-15.5-4.36 29.3 29.3 0 0 0-18.51 6.66l.07 3.37a26.7 26.7 0 0 0-18.5-7.47 25.6 25.6 0 0 0-13.7 3.95c6.54-5.24 17.1-6.38 29.19-2.15a30.7 30.7 0 0 0-15.5-4.36 28.6 28.6 0 0 0-18.32 6.49v3.54A26.4 26.4 0 0 0 78.05 50a25.6 25.6 0 0 0-13.7 3.95c6.54-5.24 17.09-6.37 29.2-2.15a30.7 30.7 0 0 0-15.5-4.36 29.3 29.3 0 0 0-18.52 6.66l.07 3.37A26.7 26.7 0 0 0 41.1 50a25.7 25.7 0 0 0-13.71 3.95c6.56-5.24 17.1-6.37 29.21-2.15a30.7 30.7 0 0 0-15.5-4.36 29.37 29.37 0 0 0-29.3 29.3c0 5.6 1.96 11.73 5.27 16.67-6.69-13.2-3.31-23.22.95-29.46-1.64 3.66-3.77 8.56-3.66 12.79.41 14.54 12.03 26.74 26.75 26.74 7.46 0 13.77-2.65 18.72-7.66 4.9 5.12 10.64 7.66 18.22 7.66a26 26 0 0 0 18.48-7.74c4.77 4.77 10.98 7.74 18.22 7.74 7.48 0 13.77-2.65 18.73-7.66 4.91 5.12 10.64 7.66 18.23 7.66a26.8 26.8 0 0 0 26.72-26.74A26.9 26.9 0 0 0 151.71 50M92.9 93.9a22.6 22.6 0 0 1-14.86 5.56c-5.36-.09-7.77-1.03-10.05-2.15 6.55 5.1 21.1 3.13 24.82-.08a25 25 0 0 1-14.77 4.6c-6.9 0-12.72-2.53-17.3-7.05q7.06-7.18 7.08-18.04c0-7.04-2.76-13.48-7.25-18.27 3.44-3.45 10.24-6.83 17.47-6.83 6.58 0 12.77 2.99 17.27 7.16H92a27 27 0 0 0-6.53 17.94c0 5.6 1.95 11.73 5.25 16.67-6.69-13.2-3.3-23.23.95-29.47-1.64 3.67-3.75 8.58-3.65 12.8.15 6.54 3.11 12.6 7.13 17.3zm3.51-.42a24 24 0 0 1-6.74-16.74 25 25 0 0 1 6.75-17.09 24.4 24.4 0 0 1 6.7 17.09c0 4.52-.87 8.34-3 12 3.17-10.05 2.25-17.13-1.62-22.75.7 1 2.6 6.53 2.26 10.75 0 4.8-1.51 9.29-4.08 12.96zm1.3 1.33a26.2 26.2 0 0 0 7.07-18.07c0-7.05-2.58-13.12-7.07-17.94 4.5-4.42 10.26-7.16 17.03-7.16 6.55 0 12.67 2.46 17.14 6.6l-2.88.01a29 29 0 0 0-6.6 18.49c0 5.6 1.95 11.73 5.26 16.67-6.69-13.2-3.31-23.23.95-29.47-1.64 3.67-3.76 8.56-3.66 12.8.15 7 2.5 12.77 7.03 17.6l-2.6-.27a22.7 22.7 0 0 1-14.64 5.4c-5.36-.1-7.55-1.16-10.04-2.16 6.54 5.1 21.1 3.13 24.81-.08a25 25 0 0 1-14.77 4.6c-7.21 0-12.39-2.87-17.03-7.02m4.3-.23a22 22 0 0 0 12.73 4.08c4.72 0 9.33-1.59 12.95-4.13a31 31 0 0 1-5.86-17.8c0-6.56 2.14-12.65 5.78-17.65a21.4 21.4 0 0 0-12.87-4.28c-4.7 0-9.05 1.44-12.63 4a32 32 0 0 1 5.77 17.94c0 6.54-2.3 12.9-5.87 17.84m-5.51-6.04a21.7 21.7 0 0 0 3.46-11.8c0-4.43-1.22-8.57-3.54-11.9a22 22 0 0 0-3.6 11.9c0 4.25 1.55 8.41 3.68 11.8m-5.76 5.95a30.3 30.3 0 0 1-5.85-17.75 29.7 29.7 0 0 1 5.94-17.82 23 23 0 0 0-12.78-4.12c-5.56-.31-11.64 2.88-12.53 4.38a32 32 0 0 1 5.43 17.56 29.8 29.8 0 0 1-5.78 17.6 21 21 0 0 0 12.87 4.32c4.71 0 9.12-1.5 12.7-4.17m-32.42-.15-2.6-.27a22.6 22.6 0 0 1-14.62 5.4c-5.37-.1-6.96-1.37-10.07-2.16 6.56 5.1 21.11 3.13 24.84-.08a25 25 0 0 1-14.77 4.6A25.15 25.15 0 0 1 16 76.73a25.15 25.15 0 0 1 25.1-25.09c6.54 0 12.67 2.46 17.13 6.6l-2.89.02a29.2 29.2 0 0 0-6.6 18.48c0 5.6 1.96 11.73 5.26 16.67-6.69-13.2-3.3-23.22.95-29.46-1.63 3.66-3.75 8.55-3.65 12.79.15 7 2.5 12.76 7.02 17.6m1.34-5.99a21.7 21.7 0 0 0 3.36-11.62c0-4.27-1.24-8.29-3.4-11.71a22 22 0 0 0-3.52 11.71c0 4.2 1.5 8.32 3.56 11.62m-5.62 6.18a31 31 0 0 1-5.87-17.8c0-6.56 2.14-12.65 5.78-17.65A21.3 21.3 0 0 0 41.1 54.8a22 22 0 0 0-21.94 21.94A21.97 21.97 0 0 0 41.1 98.66c4.7 0 9.33-1.59 12.94-4.13m79.7-.51a23.8 23.8 0 0 1-7.14-17.29 24.7 24.7 0 0 1 6.61-16.93 25 25 0 0 1 6.62 16.93c0 4.53-.88 8.35-3 12.01C140 78.7 139.09 71.62 135.22 66c.7.99 2.6 6.53 2.26 10.74 0 4.67-1.43 9-3.86 12.61zm.66.76q7.06-7.18 7.08-18.04c0-7.05-2.76-13.48-7.27-18.27 3.46-3.46 10.25-6.83 17.49-6.83a25.14 25.14 0 0 1 25.07 25.1c0 4.52-.86 8.34-2.99 12 3.17-10.05 2.24-17.13-1.62-22.75.69 1 2.6 6.53 2.25 10.74a22.76 22.76 0 0 1-22.71 22.73c-5.37-.09-7.77-1.03-10.07-2.15 6.55 5.1 21.1 3.12 24.82-.08a25 25 0 0 1-14.75 4.6c-6.9 0-12.72-2.53-17.3-7.05m4.42-.45a21 21 0 0 0 12.88 4.33 21.97 21.97 0 0 0 21.92-21.92A22 22 0 0 0 151.7 54.8c-5.57-.31-11.65 2.88-12.53 4.38a32 32 0 0 1 5.43 17.56 29.8 29.8 0 0 1-5.78 17.6m-5.5-5.98a21.8 21.8 0 0 0-.04-23.33 22 22 0 0 0-3.52 11.71c0 4.2 1.48 8.32 3.55 11.62"/></g></svg>