<svg id="Layer_1" data-name="Layer 1" xmlns="http://www.w3.org/2000/svg" viewBox="0 0 645.72 224"><title>Audi Logo Vector</title><path d="M710.86,388a111.46,111.46,0,0,0-70.18,24.78A111.77,111.77,0,0,0,500,413a111.77,111.77,0,0,0-140.68-.26,112,112,0,1,0,0,174.44A111.77,111.77,0,0,0,500,587a111.77,111.77,0,0,0,140.68.26A112,112,0,1,0,710.86,388ZM640.68,555.59a89.38,89.38,0,0,1,0-111.18,89.38,89.38,0,0,1,0,111.18ZM500,555.19a89.4,89.4,0,0,1,0-110.38,89.4,89.4,0,0,1,0,110.38Zm-140.68.4a89.38,89.38,0,0,1,0-111.18,89.38,89.38,0,0,1,0,111.18ZM199.57,500a89.52,89.52,0,0,1,143.66-71.34,111.77,111.77,0,0,0,0,142.68A89.52,89.52,0,0,1,199.57,500Zm175.84,71.34a111.77,111.77,0,0,0,0-142.68A89.36,89.36,0,0,1,484,429,111.77,111.77,0,0,0,484,571a89.36,89.36,0,0,1-108.57.3ZM516,571A111.77,111.77,0,0,0,516,429a89.36,89.36,0,0,1,108.57-.3,111.77,111.77,0,0,0,0,142.68A89.36,89.36,0,0,1,516,571Zm194.84,18.53a89.1,89.1,0,0,1-54.09-18.23,111.77,111.77,0,0,0,0-142.68,89.55,89.55,0,1,1,54.09,160.91Z" transform="translate(-177.14 -388)"/></svg>