<svg xmlns="http://www.w3.org/2000/svg" xml:space="preserve" width="344" height="550" viewBox="-0.17 -0.04 344 550"><path fill="none" d="M0 574.03V0l349.46.37v573.66" clip-rule="evenodd"/><path fill="#fff" d="M325.74 0c9.5 0 17.2 7.6 17.2 17.02v515.4a17.1 17.1 0 0 1-17.2 17.02H17.75A17.1 17.1 0 0 1 .56 532.42V17.02A17.1 17.1 0 0 1 17.76 0z"/><path fill="#fff200" d="M7.25 76.4h329.23v455c0 3.78-.65 6.12-3.2 8.66-2.77 2.75-5.2 3-9.59 3l-306.61.03c-2.42 0-4.27-.77-6.27-2.46a9.7 9.7 0 0 1-3.56-7.57z"/><path fill="#ed1c24" d="M7.25 53.51h329.23v23.38H7.25z"/><path fill="#fff" d="M7.25 30.09h329.23v23.38H7.25z"/><path fill="#009a4e" d="M16.55 6.32h310.4c4.97 0 9.56 4.79 9.56 9.46v14.93H7.25l.03-13.13V16.5c0-5.29 4.07-9.65 9.27-10.17"/><path d="M325.74 0c9.5 0 17.2 7.6 17.2 17.02v515.4a17.1 17.1 0 0 1-17.2 17.02H17.75A17.1 17.1 0 0 1 .56 532.42V17.02A17.1 17.1 0 0 1 17.76 0zm0 6.8H17.75c-5.7 0-10.32 4.58-10.32 10.22v515.4c0 5.65 4.62 10.2 10.32 10.2h307.99c5.7 0 10.32-4.55 10.32-10.2V17.02c0-5.64-4.61-10.23-10.32-10.23"/><path d="M165.7 105.28s-.22 1.98-.67 3.15c-.44 1.07-1.6 1.8-1.53 2.52.08.7.83 1.56 2 2.15 1.15.6 1.6 1.06 2.78 1.36 1.1.27 2.48 1.07 2.87.16.4-.93-.2-2.06-.86-3.15-1.15-1.9-1.74-2.35-3.44-4.95-.36-.56-.64-1.16-1.16-1.24"/><path d="M157.07 309.7c.11-.35 2.84 1.38 4.25 2.2 2.98 1.8 4.32 2.85 6.95 4.82a92 92 0 0 1 5.18 4.2c2.57 2.22 3.96 4.11 4.65 3.68 1-1.2-1.64-4.7-3.97-6.61-2.27-1.88-4.62-3.4-6.42-4.59-2.33-1.55-2.54-1.9-6.03-4.25a56 56 0 0 1-6.97-5.66l-3.64-2.86-5.7-4.8-6.34-5.84-4.78-5.33s-3.73-4.56-4.32-5.44c-.6-.86-2.35-3.68-3.8-6.06a80 80 0 0 0-4.03-5.75c-1.35-1.64-4.44-.98-8.04-3.1-4.36-2.57-5.41-4.92-5.41-4.92s-.16-.35-.33-.53c-.16-.2-.5-.43-.5-.43l-2.28-1.6-1.3-.86s-1-.82-2.25-1.35a63 63 0 0 1-4.04-2.18l-5-3.18-2.6-2.1c-.65-.5-1.89-1.2-1.89-1.2s-.78-.4-1.02-.42l-1.27-.1s-.97-.26-1.94.89c-.98 1.15-.74.54.85 7.03.63 2.55.57 11.56 1.25 14.3.86 3.53 3.33 8.08 3.59 8.62s.42 2.5.42 2.5-.1 1.6.06 2.6c.76 4.65 7.56 1.6 9.07 7.98 1.47 6.3-.89 12.58-.89 12.58s-1.46 3.12-3.53 3.62c-2.06.47-5.26-4.1-7.58-7.8-2.28-3.63-4.15-8.4-4.75-9.92s-.92-1.85-1.6-2.94c-1.03-1.64-1.85-1.34-3-3.93s-.13-3.62-.65-5.87c-.3-1.25-.56-1.39-.96-3.17a110 110 0 0 1-.88-7.43l-.72-5.26s-.26-2.4-.59-3.91a88 88 0 0 1-1.54-10.36l-.22-2.09-.08-2.16s-.07-1.04.19-2.1c.25-1.07.77-1.96.77-1.96s1.06-1.78 1.24-2.22c.18-.43 2.35-2.95 2.35-2.95s1.14-.94 3-2.08c1.85-1.13 3.52-1.05 3.52-1.05s.5-.05 3.79.36 10.06 2.2 11.77 2.65a25 25 0 0 1 5 1.89c3.77 2.05 4.9 1.18 1.91-1.17-2.01-1.57-2.58-2.28-4.2-3.76-1.38-1.26-2.45-2.1-3.47-3.26a104 104 0 0 1-3.94-5.48l-1.83-2.7s-.97-1.1-1.13-1.18c-.16-.1-.65-.47-.65-.47s-1.2.06-2.45-.18c-1.27-.25-1.85 1.52-1.85 1.52s-2.7 5.05-5.46 8.14c-4.46 5.03-7.66 8.44-9.3 11.12-2.3 3.7-1.8 7.77-2.98 9.64-.69 1.1-1.07 1.27-1.44 2.23-1.16 2.91 3.03 4.51 2.07 7.74-1.53 5.13-13.53 10.2-15.12 9.35-1.65-.87-.3-7.8.25-10.04a29 29 0 0 1 2.41-5.74c.15-.17.56-.95.68-1.61.13-.66.18-2.16.25-3s.43-2.16.43-2.16.04-.28 1.1-2.58c1.07-2.31 4.98-7.7 7.78-12.84 1.85-3.35 2.61-5.38 4.46-8.74 1.7-3.09 4.62-7.8 4.62-7.8s1.23-2.4 1.8-3.29c.59-.91 1.82-2.64 2.97-4.35s1.45-2.98 2.96-4.38a9 9 0 0 1 3.75-2.31c2.44-.81 4.1-.38 6.6.31 2.58.7 4.36 1.9 6.05 3.3a24 24 0 0 1 2.94 2.97l.82 1.22.51.3 1.57 1 3.6 2.38 9 6.12c.45.3 1.98 1.55 2.28 1.65.31.1 2.58-2.37 7.04-5.44 5.15-3.58 6.97-3.3 8.68-4.24 1.68-.93 2.38-1.7 3.7-3.02 2-2 2.02-3.07 4.28-5.86 2.29-2.78 4.43-4.35 4.43-4.35s.31-.31 4.38-4.91a45 45 0 0 0 5.86-8.06l2.23-4.46s3.23-6.95 4.27-9.7c1.05-2.75 1.05-3.67 1.05-3.67s.15-.72-.63-2.12c-.8-1.4-1.64-.76-3.19-.44-2.96.63-4.76-.14-7.75-.67-2.74-.45-4.17-1.27-6.91-1.73-2.79-.47-4.41-.93-7.2-.66-.43.05-1.28.23-1.69.36-1.58.53-2.01.65-3.18 1.33a8 8 0 0 1-3.75.87c-1.04.03-1.67.06-2.63-.32a4.3 4.3 0 0 1-2.28-1.75c-.03-.3-.13-.28.16-.76.27-.48.62-.57.62-.57l1.28-.31 1.97-.52c.16-.04 1.87-.6 2.63-.84s1.59-.67 1.59-.67.46-.74.28-1.16c-.22-.48-1.24-.53-1.24-.53s-1.43.53-1.6.57c-.15.03-2.43.76-2.43.76s-1.8.39-3.19.72c-1.4.31-3.4.48-3.4.48l-.6-.17s-.67-.45-.78-.93c-.1-.42-.16-.74-.24-1.22-.3-1.77-.66-2.84-.24-4.58a11 11 0 0 1 1.44-3.23l1.1-1.8 2.08-3.07a8 8 0 0 1 2.08-1.6 8 8 0 0 1 3.75-1.13c1.62-.17 1.84-.16 4.14-.67 2.32-.53 3.96-1.44 3.96-1.44s5.53-2.03 8.9-3.69c3.53-1.73 5.07-3.57 8.72-5 1.55-.6 2.45-.89 4.04-1.3.2-.13.3-.25.36-.49.15-.58-.74-.84-1.35-.78-.56.04-1.82.63-2.1 0-.22-.49 1.15-.77 1.15-.77s.64-.3.66-.66c.02-.56-.93-.2-1.35-.24-2.15-.24-2.32-.63-3.8-1-1.75-.43-2.7-.97-4.51-1.05-1.6-.06-3.1.28-4.1.52-1 .25-1.03-.73-.64-.92 2.81-1.3 2.87-1.41 4.86-1.5 1.08-.05 2.6.18 2.76.26.17.1 2.34-.01 2.89-.58.57-.56-1.78-.52-2.89-.96-1.02-.41-2.58-.53-2.55-1.2.06-.68.81-.3 1.35-.44.67-.16 1.07-.15 1.76-.24 1.25-.17 1.35-.28 3.2-.44 1.82-.17 4.45.6 4.45.6s2.76 1.23 4.12 1.87c1.35.63 2.99.96 2.99.96s1.92.27 3.38-.64c1.49-.91.65-1.51.13-2.35-.5-.78-1.15-1.92-.2-4.08.84-1.87 1.27-4.06 1.51-4.26.3-.24 1.46 1.44 2.22 2.13 2.7 2.53 6.27 3.77 9.64 9.05.26.42 1.5-.25 5.41.35s7.32 4.78 8.19 5.78c.89 1 2.04.95 2.04.95l1.88.26 6.81.11s3.1-.55 4.88.13c1.25.47 5.4 3.24 3.5 4.3-1.31.73-2.56-.89-3.76-.97-1.42-.09-2.03.18-3.3.5-2.64.66-8.32 2.37-6.25 3.07.15.06.44.1.44.1l1.02.18s2.49.57 4 1.16c2.27.9 3.35 1.9 5.44 3.12 1.2.7 1.73 1.39 3.03 1.78 1.2.35 1.97 0 3.2.2 1.62.3 2.52.62 4 1.33 2.2 1.06 3 2.33 4.97 3.75.99.71 1.82.82 2.55 1.78.17.22.31.33.4.59.25.87-1.46.36-2.36.21-1-.17-1.42-.66-2.34-1.08-1.37-.65-2.02-1.36-3.5-1.63-1.09-.2-1.73-.04-2.84.02-1.08.05-1.65.2-2.72.22-1.83.03-2.86-.13-4.66-.5-2.02-.43-3.02-1.21-5.02-1.63-2.26-.47-6.26-2.4-5.88-.47.2.93 2.33 1.72 2.33 1.72s1.46.78 2.84 1.4a6 6 0 0 1 2.16 1.51l.95.71s.98 1.36 2.28 2.89c1.26 1.5 3.5 1.46 3.5 1.46s1.36 0 4.28.6c2.9.6 5.9 2.4 5.9 2.4s2.27 1.55 3.6 3.11c1.3 1.56.55 2.35.38 2.5-.16.18-.1.1-.28.18-.15.07-1.78-1.97-1.78-1.97l-1.17-1s-1.14-.8-2.62-1.27-1.97-.15-1.97-.15-3.14.87-5.87.8c-2.71-.08-4.13-1.17-4.13-1.17l-1.72-1.15s-2.59-2.42-2.68-1.28c-.06.78 1.14 1.64 1.14 1.64s.83.84 1.39 1.37c1.04 1.03 1.47 1.55 2.67 2.62s1.94 1.07 1.94 1.07l.9.2c.24.05.67.17.67.17l2.28.91c1.86.75 3.87 2.4 3.87 2.4s.19.15.47.2c.27.03.83.3.98.36.17.03.65.03 1.72.19 1.1.16.68.85.68.85l-.19.26-.89.6s-1.15.33-1.94.37c-.8.05-1.93-.4-1.93-.4l-2.42-.9s-2.45-.65-2.97-.74c-.52-.07-2.7-.51-3.08-.59-.35-.08-1.44-.48-1.73-.64s-.83-.27-2.16-.92c-1.3-.65-1.83-1.4-3.46-1.9-1.64-.53-2.64-.64-3.88.22-2.12 1.46 3.2 1.7 5.85 3.02 3.9 1.92 6.1 3.34 7.03 5.41.94 2.09 1.88 2.84 1.88 2.84s2.75 1.39 3.98 2.84c.68.78.77 1.43 1.45 2.22 1.5 1.76 4.43 1.66 5.01 3.16.56 1.4-2.37.77-3.89.63-2.74-.26-3.4-2.77-5.95-3.78-1.45-.58-2.37-.58-3.85-1.08-2.7-.89-3.95-2.05-6.65-2.89-1.63-.5-4.58-2.64-4.21-1 .06.4.3.72.41.96a22 22 0 0 0 2.14 2.63c.39.33 2.12 1.64 4.62 2.99 2.46 1.35 4.61 3.95 4.61 3.95s.74 1.07 1.1 1.8c.36.84.1 1.09.69 2.24.53 1.15.8 1.37 1.53 2.08 1.82 1.75 3.73 1.4 6.03 2.35.64.26.68.36 1.36 1.08.68.71-.13 1.02-.13 1.02s-2.56.66-4.23.52c-2.15-.16-3.12-.83-5.21-1.87-2.12-1.04-3.23-2.91-3.45-3.02-.18-.13-.7-.68-1.1-.97s-1.43-.5-2.36-.75c-.94-.25-1.46-.3-2.4-.55-1.27-.37-2.6-.93-3.2-1.12s-1.97-.45-2.97.14c-2 1.18 3.11 1.98 4.7 3.68.81.86 1.15 1.46 1.92 2.36.58.69.83 1.17 1.55 1.71.5.36 1.4.76 1.4.76s1.23.57 3.03 1.56 3.91 3.8 3.91 3.8l1.28 1.95.75 1.12.2.51.28.63s.92 1.2 1.6 1.6c.67.4.55.76.55.76s-.08.24-.55.51c-.46.29-.73.05-1.4-.15-.68-.2-1.13-.84-1.7-1.31-.63-.5-1.27-1.68-2.36-2.36-.97-.59-2.23-.8-2.73-.95-.47-.17-1.67-.93-2.15-1.14-.46-.18-1.7-.75-1.7-.75s-2.4-1.34-3.73-1.7c-1.32-.37-.48.44-.48.44s1.19 1.85 2.32 2.58c1.48.98 3.56 1.84 2.88 2.63-.46.52-1.08.33-1.75.26-1.1-.13-2.45-1.46-2.45-1.46s-.55-.36-3.03-1.14c-2.46-.81-1.55.54-.98 1.27.55.71 1.3 1.12 1.3 1.12l1.68.75.77.24s.68.12 2.91.65c2.23.5 3.46 1.59 3.46 1.59s1.2 1.12 2.86 2.35a9 9 0 0 0 4.28 1.68c.92.12.9.76.9.76s.11.6.05.79a.45.45 0 0 1-.43.36c-.18 0-.27.08-.52.2s-1.2.28-1.2.28-2.5-.07-4.46-.56c-1.94-.47-3.66-1.83-3.85-1.9-.15-.08-1.97-1.09-3.23-1.49a8 8 0 0 0-3.38-.15c-.2.07-.88.18-2.03.52-1.17.3.29.75.29.75l.83.08 1.98.15s2.07.24 3.8.89c1.74.63 2.88 1.9 4.03 3.08a14 14 0 0 0 2.44 1.9l.92.6.48.36.12.31-.12.36c-.08.21-.37.36-.37.36s-.43-.07-.62-.07c-.21 0-1.52-.7-2.49-1.12-1-.44-1.5-.85-2.59-1.11a8 8 0 0 0-2.43-.24c-.27.07-2.3.36-3.87.47-1.57.12-2.93.14-4.77-.08-2.63-.32-6.12-2.4-6.57-1.82-.9 1.22 1.86 1.57 3.21 2.34 1.85 1.07 5.05 2.03 5.05 2.03s2.34.52 3.7 1.16c3 1.4 3.92 3.46 6.33 5.63a7 7 0 0 0 4.18 2c1.54.22 1.51.04 3.94-.44 2.45-.48 3.93-2.8 4.63-1.95.14.16.08.31.05.55-.05.24-.25.68-.25.68s-.27.39-.7.84c-.45.43-2.13 1.35-3 1.71s-3.03.96-5.74.88c-2.7-.08-6.52-2.16-6.52-2.16l-2.74-1.15s-1.26-.6-2.12-.92c-2.28-.86-3.73-.78-6.07-1.4-1.44-.39-2.4-.8-3.7-1.06-1.33-.29-.57.23-.45.42.62.84 1.45 1.1 2.5 1.59 1.38.68 2.35.54 3.76 1.14 1.59.64 2.97 1.54 3.85 2.1.86.56 1.5 1.2 2.35 2.07l2.91 2.5s.68.55.75.78c.08.24.4.83.25 1.8-.17.96-.95.28-.95.28l-.77-.5-.77-.7-1.22-1s-1.04-.95-2.85-1.87c-1.78-.93-3.93-1.16-3.93-1.16s-1.91-.28-1.85.32c.1.59.52.64 2.03 1.03 1.52.4 2.52 1.17 2.52 1.17s1.56 1.15 2.68 2.43c1.1 1.27 1.43 2.51 1.43 2.51s.57 1.05 2 2.43c1.43 1.4 2.19.92 2.1 1.6-.07.67-.7.8-.7.8l-.52-.04c-.16 0-.53-.2-.93-.36s-1.9-1.2-1.9-1.2-2.37-1.92-2.63-2.1c-.3-.21-2.53-1.88-2.53-1.88s-1.32-.85-2.26-1.32a28 28 0 0 0-2.97-1.2c-.7-.24-2.03-.31-2.03-.31s-1.58-.24-2.55-.6c-1.52-.59-3.3-2.21-3.5-2.29a9 9 0 0 0-1.9-.52c-.28.03-.92 2.7-1.08 4.25-.64 6.48 1.08 10.78 3.76 16.72 3.86 8.63 14.61 19.36 14.61 19.36s2.7 1.53 3.85 2.44c3.21 2.52 8.53 6.08 13.26 10.79 4.03 4.04 9.38 11.2 9.38 11.2s3.1 4.32 4.56 7.38c1.75 3.76 3.17 9.48 3.17 9.48s.12.98.21 1.2c.12.2.4.46.59.46l1.87.06c.19 0 2.32-.15 3.74-.5 1.4-.36 4.72-1.88 6.94-3.04 2.18-1.17 4.81-3.38 4.81-3.38s.51-.43 3.07-3.3c2.58-2.85 4.24-7.15 4.87-8.77.62-1.6 1.13-4.7 1.5-10 .4-5.31-.33-10.91-.33-10.91s-.97-7.82-1.55-10.48c-.59-2.65-2-6.98-2-6.98s-.99-3.86-1.3-6.3-.36-6.41-.36-6.41 0-2.43.78-6.92c.82-4.47 3.55-8.98 3.55-8.98s.77-1.52 3.73-5.05c3.03-3.63 4-4.2 6.98-6.36 2.37-1.7 5.43-4.44 6.43-3.79 1.11.7-1.08 2.08-1.81 2.8-1.86 1.85-5.34 5.1-8.16 10.02-2.46 4.26-3.38 7.07-4 9.85-.61 2.77-.35 5.81-.27 6.85.1 1.04.66.66.66.66s5.98-4.8 9.23-8.44c3.52-3.94 6.66-10.95 7.9-11 .82-.06 1.2 1.81 1 2.68-.76 3.64-1.02 4.1-2.2 6.51-1.36 2.77-2.62 4-4.5 6.55-1.97 2.68-2.94 3.7-4.52 7.25-2.3 5.1-.96 9.04-.96 9.04s.28 2.39 1.36 2.36c1.8-.06 5.75-5.05 8.34-9.14 1.9-3 2.6-6.45 3.84-8.27 1.14-1.6 2.14 2.62 1.65 5.1-.57 2.97-2.03 5.63-5.25 9.82-3.14 4.1-3.04 7.99-3.04 7.99s-.33 1.78-.59 5.65c-.24 3.86.86 9.73.86 9.73s.99 4.9 1.19 8.6c.18 3.75.06 12.23-3.43 18.84-1.39 2.65-4.36 6.3-4.36 6.3s-2.29 2.36-4.17 3.73-6.38 3.5-6.38 3.5-3.12 1.08-3.55 1.18c-.47.12-.74.5-.74.5l.4.85.98 2.4s.94 3.05 1.3 5.46c.35 2.42-.07 2.97-.4 4.82-.34 1.77-1.11.95-1.31 4.43-.17 3.08 1.21 4.61.97 8.06-.11 1.5-1.82-1.9-2.65-3.35-1.75-3.14-1.34-7.97-1.37-9.17a16 16 0 0 0-.58-4.03 14 14 0 0 0-2.27-4.7c-.92-1.18-1.89-1.86-2.21-1.73-.32.1-.36.73-.36 1.04-.01.34.63 1.48.77 1.73.17.23 1.33 2.33 1.33 2.33s.5 1.64.7 4.8c.2 3.14-.77 7.05-.77 7.05s-1.26 4.39-2.58 6.97c-1.48 2.85-4.75 6.72-4.75 6.72s-2.36 2.16-4.13 5.7c-1.73 3.53-.24 5.07-.89 5.53-.68.45-2.06-2.04-2.43-3.72-.35-1.57-.19-2.3.46-4.06.6-1.7 2.02-4.14 2.02-4.14l2.1-3.59s2.56-4.86 3.36-8.4c.8-3.5-.12-7.41-.12-7.41s-.11-1.3-.99-1.23c-.9.05-1.5.82-1.88 1.75-.72 1.94.31 1.59-.8 4.82-.86 2.54-1.1 2.2-1.57 3.7-.55 1.8-.84 3.65-.81 4.78.05 1.1-.57.64-.57.64s-1.08-2-1.08-4.5c0-1.34.07-2.11.22-3.47.25-2.17 1.14-5.49 1.14-5.49s.95-3.28.75-6.26c-.23-3.02-1.27-3.57-1.27-3.57s-.28-.4-1.45-.34c-1.15.1-1.1 2.17-1.1 2.17s-.35 2.97-.8 4.82c-1.28 5.09-3 7.76-6 12.06a53 53 0 0 1-8.31 8.89 167 167 0 0 1-7.54 5.77l-6.68 4.44s-2.64 2.59-3.85 5.67a12.3 12.3 0 0 0-.46 8.27c.71 2.83 1.73 4.12 2.26 4.92.53.77 1.56 2.16 1.9 3.79.21 1 .06 1.6.12 2.61.06.9.19 1.39.15 2.3-.03 1.41.23 2.41-.58 3.56-.59.88-2.19 1.65-2.19 1.65s-1.81.8-2.89 1.46c-11.35 6.85-15.38 11.3-21.78 18.92-2.03 2.45-.54 2.3-2.7 5.19-1.32 1.72-4.36 1.72-5.46 3.78-1.53 2.82 3.44 5.59-2.3 8.06-7.41 3.2-20.16.91-20.41-.09-.7-2.74 2.5-5.9 3.62-7.17 5.19-5.66 9.82-5.8 11.52-10.49.37-1 .22-1.86 4.35-4.92 2.9-2.14 14.49-10.86 19.55-16.68 1.74-2 3.23-3.32 3.98-5.47.77-2.2-.75-3.56-.75-3.56l-2.08-3.38-3.98-7.13s-1.68-3.78-2.59-5.97c-.94-2.18-2.67-8.06-2.67-8.06s-1.28-5.29-1.5-8.74c-.38-6.18.46-9.78 2.1-15.78 2.1-7.78 6.89-11.04 8.8-18.77.55-2.24.67-6.09-.47-5.9-1.07.2-1.17 3.23-2 5.26-3.07 7.66-7.13 11.01-9.36 18.95-1.5 5.37-2.11 8.55-2.1 14.12.02 3.19-.1 2.6.71 8.13.32 2.03.82 3.12 1.42 5.1.43 1.42 1.58 4.06 1.58 4.06s1.59 3.5 2.14 5.94c.17.85.38 1.32.32 2.17-.1 1.46.16 1.77-.55 3.1-.88 1.64-.34 2.6-3.14 3.22-2.5.53-7.58-1.14-7.58-1.14s-20.93-6.33-34.3-4.5c-2.64.35-4.06 1.32-6.73 1.27-2.42-.03-3.65-1.92-6.07-1.2-.5.14-.65.5-1.1.79-3.53 2.46-.83 6.55-10.15 4.43-5.72-1.31-12.65-4.82-11.45-7.02 1.6-2.92 3.76-3.4 8.28-5.26 4.84-1.97 12.1-1.41 13.53-1.5 1.75-.14 4.26-1.36 7.38-1.44 5.4-.09 6.36.56 6.36.56l9.17.81 17.54.22s3.14-.23 4.39-.48c1.26-.25 2.25-2.72 2.94-3.9s-.03-2.9-.03-2.9l-.52-.81-1.67-2.7-3.08-5.2-3.43-6.83s-2.23-4.75-3.43-7.87c-1.18-3.11-1.87-4.86-2.66-8.08a43 43 0 0 1-1.44-8.64c-.13-3.82-.38-6.8.69-9.92"/><path fill="#fff" d="M270.97 303.36c3.7-4.74 4.05-9.14 4.26-15.34.17-4.51-1.53-11.46-1.53-11.46l-.24-.5s-.64-.84-1.04.27c.06.97.18 1.76.18 1.76l.22 8.94s-.28 4.51-1.82 9.16c-2.58 7.84-9.44 11.33-10.44 14.17-1.71 4.69 6-1.3 10.41-7m-38.7 14.47s-1.51.43-1.54 1.92c-.03 1.5.37 2.79.32 4.59-.03 2.3-2.14 4.94-.78 5.8 2.32 1.48 4.32-8.92 3.61-10.46-.7-1.54-1.4-1.87-1.61-1.85m-26.07 72.11s-.43-.23-1.27.09c-.83.32-.77 1.18-.77 1.18s-.17.93.5 1.02c.69.12 1.8-1.54 1.8-1.72s-.25-.57-.25-.57m-24.53 17.43s-.24.24-.03.41c.23.2.56-.05.56-.05s4.23-3.3 6.73-5.63c2.65-2.49 6.47-6.78 6.47-6.78s.26-.32-.03-.6c-.31-.28-1.04.15-1.64.43-.52.28-.83.57-1.23.9-.36.33-1.63 1.62-1.63 1.62l-3.26 3.17-2.06 1.94-2 1.9-.83.96-.28.46c-.06.11-.27.39-.27.39s-.31.3-.31.38-.1.16-.1.25c-.03.12-.09.25-.09.25m-7.31 4.8s-.46-.37-1.17-.02a6 6 0 0 0-1.55 1.48c-.07.14-.47.66-.2 1.12s1.19-.22 1.33-.25c.13 0 1.32-.95 1.32-.95s.7-.43.27-1.38m-14.01 14.18s-.6-1.1-1.38-.65c-.79.46-1.22.62-1.94 1.62-.12.17-.9 1.17-1.04 1.43-.14.25-.91 1.72.66 1.83 2.71.15.93-1.58 1.86-2.26.76-.52 2.17-.39 2.19-.94a2 2 0 0 0-.35-1.03m-48-56.68s-1.62.4-1.74.96c-.13.58.94 1.14 1.11 1.17.2.03.56.46 1.64-.28 1.07-.72 1.02-1.34 1.02-1.34s.64-.74-2.03-.5m26.4-.87s-.01-.6-1.16-.52c-1.17.06-1.41.28-1.44.46s.06.46 1.1.56c1.05.06 1.47 0 1.5-.5m24.96.73c-2.1-.02-1.43.04-2.73.1-2.34.13-3.62.03-5.93-.12-3.25-.21-8.27-1.01-8.27-1.01s-.63-.16-.89.26c-.23.38.62 1.27 1.37 1.5 4.12 1.28 4.34 1.07 7.14 1.11 1.56.02 2.43-.14 3.98-.23 1.97-.15 2.89.16 5.03-.41.56-.14 1.1-1.19.3-1.2m14.06-4.17s-.42-.5-1.29-.06c-.86.41-1.38 1.35-1.38 1.35s-.41.65.46.55c.84-.12 1.6-.49 1.8-.61.23-.13.86-.71.41-1.23M165.55 196.6s5.93-5.56 10.19-12.92c2.52-4.38 3.62-14.59 1.45-12.05-.98 1.16-2.16 6.45-4.04 10.38-2.67 5.58-8.39 13.49-8.39 13.49s-1.23 2.63.79 1.1m-23.75 14.13s-.62.5-.34 1.28c.3.8 1.51.2 1.51.2s2.75-1.04 5.62-1.15c2.89-.12 6.89.74 6.89.74s1.9.52 2.22.64c.32.13 1.36.63 1.53.7s1.15.55 1.7.05c.56-.5-3.47-4.16-7.57-4.71-6.84-.94-11.33 2.01-11.33 2.01zm-28.16 24.08c.49.42 2.77-3.94 4.68-6.69 1.4-2.01 3.95-5.38 3.95-5.38s1.16-1.55-.8-.69c-.79.36-2.96 2-4.49 5.05-1.3 2.58-3.85 7.3-3.34 7.71m-15.8-18.91s-.5 1.68 1.48 3.79 2.5 3.86 3.75 2.6c.35-.35-1.23-3.2-2.03-3.99-.82-.78-1.4-1.43-1.4-1.43l-.52-.42-.66-.37-.38-.15s-.1-.1-.24-.03m-6.4-16.16s-2.14.4-2.66 1.44c-.53 1.04 2.46.41 2.46.41s1.99.1 2.03-.65c.05-.76-.25-.84-1.83-1.2m-33.97 56.31c-1.1-.32-1.28 1.83-1.43 2.52-.12.7.5 2.08.75 2.08.25-.02 1.11-1.37 1.16-2.03.05-.68.48-2.27-.48-2.57m35.28 41.94s-1.95-1.55-2.25-.94 1.6 3.33 1.6 3.33.59.9 1.49.5c.88-.43.57-1.42.57-1.42s-.6-1.26-1.41-1.47m-14.73-45.36s-.5-.13-.68.47-.17 1.58-.3 2.76c-.1.93.24 3.39.24 3.39s.2 1.95.59 3.11c.42 1.28 1.54 3.1 1.54 3.1s.43.93.95.88c.51-.05.39-.66.39-.66s-1.64-6.5-1.68-7.15c-.2-2.16-.2-4.8-.2-4.8l-.01-.39s-.02-.7-.84-.7m2.55-19.81s-.9-.17-1.73 1.56c-.84 1.75-.66 2.46-.58 2.54.06.07.72.06 1.78-1.56 1.06-1.61.82-2.23.82-2.23s-.06-.31-.29-.31m24.76 17.94s1.08 1.62-1 1.25-6.46-3.83-8.24-4.76c-1.76-.93-4.66-1.23-3.45-2.32.22-.18.29-.36.63-.37.36-.02 1.56.45 1.64.5.06.03 3.15 1.31 3.26 1.34.1.05 1.84.79 3.07 1.5 1.23.74 3.23 2.14 3.23 2.14zm57.69 49.68c.57 1.78-6.57-3.77-10.39-6.72-10.13-7.8-22.53-23.79-20.98-25.2 1.27-1.17 6.36 6.16 13.81 14.22 7.97 8.6 17.23 16.64 17.56 17.7m29.8-7.65c-2.21 2.36-3 5.39-1.72 7.65 1.24 2.2 1.63-3.22 3.01-4.81 1.2-1.4 1.94-1.17 3.91-2.57 3.35-2.36-2.4-3.28-5.2-.27m-12.67-50.47c-1.53-.25-1.48 2.07-1.27 3.7 1.02 7.34 4.31 13 8.71 18.32 2.68 3.24 10.02 9.03 10.86 8.1.31-.33-6.98-5.97-11.63-13.21-3.3-5.14-5.04-9.49-5.46-13.73-.05-.54.08-2.97-1.22-3.18m-28.41-108.76c-3.3 1.8-9.04 3.37-9.04 3.37s-.27.57.47.5c4.92-.38 6.8-1 9.41-2.15 2.62-1.13 4.51-4.27 4.51-4.27s1.07-1.96-.9-.35c-.62.5-2.63 1.9-4.45 2.9m39.91-12.61s-1.13-.24-1.88.23-.54.85-.54.85 1.17.9 2 1.04c.83.12 2.62.9 2.56.3-.08-.61-1.08-1.71-1.44-2.01-.32-.32-.7-.4-.7-.4m-18.79 34.45c.2.4 3.55-.52 4.84-1.24 1.01-.57 1.4-2.48 1.4-2.48s.29-1.85-.14-1.13c-1.92 3.13-6.28 4.45-6.1 4.85m-.1-8.6c1.35-2.6-3.72 2.7-6.3 4.07-1.58.83-4.15 1.93-4.15 1.93s-.68.85.27.77c.95-.06 3.35.76 5.3-.75.47-.37 2.5-3.33 2.5-3.33s1.73-1.46 2.38-2.7m-.79 11.07c.1.42 5.8.28 7.22-.15 1.12-.3 1.73-2.3 1.73-2.3s.68-1.73.1-1.14c-2.58 2.63-9.15 3.16-9.05 3.59m-91.29 52.06s-.87-.31-1.93 1.3c-1.07 1.6-5.85 8.86-5 9.93 1 1.26 5.15-6.49 6.41-7.93 1.28-1.47.75-2.95.75-2.95s-.01-.33-.23-.35M184.88 341c-.52 2.42.1 7.35.93 8.32 2.03 2.45.78-3.83 1.07-6.03.25-2.04.5-2.75 1.51-4.94 1.82-3.94-2.44-2.49-3.5 2.65m-17.47-210.04s-1.57.04-2.8.72c-1.25.68-1.56 1.64-1.56 1.64s-.25.69-.08 1.07c.36.82 2.07-.43 3.26-.02a4.2 4.2 0 0 1 2.16 1.52c.64.77 1.78 1.87 2.48 1.24.73-.61.47-2.19.47-2.19s-.84-2.57-1.94-3.3c-1.11-.73-1.99-.68-1.99-.68m-26.2 18.06s-.88.14-.67 1.22c.2 1.05.78.9.78.9s1.83-.8 1.72-1.9c-.13-1.1-1.83-.22-1.83-.22m-12.79-5.73s-.96.04-1.64 1.23c-.66 1.18-1.05 2.41-1.05 2.41s-.32 1.56.24 2.05 1.17-1 1.98-1.6c.49-.34.79-.5 1.29-.85.68-.47 1.8.13 1.72-1.25-.1-1.4-1.58-2.06-2.54-2m41.34-14.88s-2.18-.31-2.1.52c.08.79 1.18.32 1.9.64.68.31 1.14.43 1.7.94.4.36.36 1.07.86 1.09.7.01.55-.27.55-.27s-.63-1.88-1.45-2.41-1.46-.5-1.46-.5m24.28 8.77c-.3 1.18-.5 1.59-.5 1.59s-.6 2.4 1.82 1.52c2.44-.89 1.17-.51 2.93-1.37 1.72-.84 1.69-.37 2.95-.31.43.01.7.03 1.36-.1.55-.12.32-.76-.91-1.1-1.32-.34-2.94-.26-4.82-.28-1.1-.01-2.5-1.14-2.83.05m1.08-8.9s-1.1-.26-1.88.22c-.75.47-.52.85-.52.85s1.15.91 2 1.04c.83.14 2.61.91 2.55.3-.09-.6-1.07-1.72-1.43-2.02s-.72-.4-.72-.4M199.4 145s-1.18-.25-2 .2c-.8.46-.58.82-.58.82s1.26.84 2.16.97c.89.13 2.8.85 2.72.27-.08-.57-1.16-1.62-1.51-1.9a2 2 0 0 0-.78-.37m.37 6.06s-1.27-.28-2.13.24-.6.93-.6.93 1.31 1 2.26 1.14 2.97.97 2.88.31c-.08-.66-1.21-1.86-1.61-2.18a2 2 0 0 0-.8-.44m.56 5.91s-1.37-.31-2.29.27c-.94.59-.65 1.06-.65 1.06s1.42 1.1 2.44 1.27c1.03.16 3.23 1.1 3.14.36-.1-.74-1.33-2.1-1.76-2.47-.4-.38-.88-.49-.88-.49m-.12 7.31s-1.37-.3-2.3.28c-.93.57-.67 1.04-.67 1.04s1.45 1.1 2.46 1.28c1.02.16 3.22 1.1 3.13.37-.11-.75-1.33-2.12-1.74-2.48a2.4 2.4 0 0 0-.88-.5m-1 14.26s-1.38-.3-2.3.28c-.93.58-.65 1.04-.65 1.04s1.41 1.11 2.43 1.28c1.03.15 3.23 1.11 3.14.36-.1-.74-1.32-2.1-1.76-2.48a2 2 0 0 0-.86-.49m.93-7.11s-1.57-.37-2.68.3c-1.06.67-.74 1.2-.74 1.2s1.65 1.3 2.83 1.48c1.17.2 3.72 1.28 3.63.43-.12-.86-1.54-2.44-2.03-2.86-.5-.44-1.01-.56-1.01-.56m-1.61 13.57s-1.13-.27-1.9.22c-.77.47-.53.85-.53.85s1.17.93 2 1.05c.85.14 2.65.92 2.59.3-.1-.61-1.1-1.73-1.45-2.03-.34-.31-.7-.39-.7-.39m-1.08 6.17s-.93-.2-1.57.2c-.62.38-.43.7-.43.7s.97.75 1.66.87c.69.1 2.21.77 2.15.24-.06-.5-.92-1.43-1.2-1.68-.29-.25-.61-.33-.61-.33m-1.32 5.63s-.84-.2-1.42.17c-.55.34-.4.64-.4.64s.88.68 1.5.77c.64.12 2 .7 1.93.24-.05-.45-.8-1.3-1.06-1.53s-.55-.29-.55-.29m-1.33 4.62s-.86-.2-1.41.15c-.59.36-.42.64-.42.64s.88.7 1.5.79c.64.1 2 .7 1.93.22-.04-.45-.8-1.29-1.07-1.51-.25-.23-.53-.3-.53-.3m-1.62 5.36s-.67-.16-1.15.12c-.46.3-.3.53-.3.53s.7.55 1.21.64c.5.08 1.62.56 1.56.17-.05-.36-.67-1.04-.87-1.23-.21-.19-.44-.23-.44-.23m-1.93 5.01s-.58-.14-.98.1c-.4.26-.28.46-.28.46s.62.47 1.05.53c.43.09 1.38.5 1.34.17s-.57-.9-.74-1.06c-.2-.16-.39-.2-.39-.2m-1.98 4.76s-.6-.13-1 .12c-.39.24-.25.44-.25.44s.59.48 1.03.55c.45.06 1.39.47 1.34.16-.03-.33-.57-.91-.74-1.07a1 1 0 0 0-.38-.2M60.52 240.72s-1 1.92-.5 2.98c.49 1.06 1.82-1.69 1.82-1.69s1.39-2.74.83-3.24c-.57-.5-.9.91-2.15 1.95"/><path d="M200.54 487.68v-3.73c0-8.5 4.3-10.16 16.83-10.22 11.54.06 15.62 1.5 15.62 8.83v28.26h4.26v6.37h-28.18c-5.94 0-9.82-4.08-9.82-9.1v-5.71c0-4.94 2.52-9.25 11.36-9.3h11.01v-8.6c0-4.49-.3-5.03-4.81-5.03h-.05c-5.4 0-5.75.71-5.75 5.03v3.2zm13.08 10.14c-2.21 0-3.52 1.79-3.52 4v5.46c0 2.2.94 3.96 3.52 3.99h3.97c2.19 0 3.97-.68 3.97-3.99l.03-9.46zm-39.88-13.44v-9.88h-15.72v5.88h4.19v30.43H158v6.38h19.7v-6.38h-3.97V494.5c0-1.52 9.27-13.23 9.27-11.88v16.2h10.89V480.6c0-4.17-2.72-6.86-7.7-6.86-5.9 0-9.9 7.43-12.46 10.65m125.33 26.39V474.5h-16.04v5.88h4.49v30.4h-4.49v6.41h20.26v-6.41zm-165.77-26.4v-9.88h-15.73v5.88h4.2v30.43h-4.2v6.38h19.68v-6.38h-3.95V494.5c0-1.52 9.26-13.23 9.26-11.88v16.2h10.88V480.6c0-4.17-2.7-6.86-7.68-6.86-5.9 0-9.9 7.43-12.46 10.65"/><path fill-rule="evenodd" d="M111.55 503.2h-11.03v3.2c0 4.35-.72 4.53-6.1 4.6h-.08c-6.16.02-5.81-.6-5.74-4.6v-7.58h22.95v-16.47c0-5.97-4.51-8.48-16.4-8.53h-1.7c-12.85.07-16.26 2.99-16.26 10.37v24.12c0 8.13 4.8 9.5 16.49 9.82h1.28c12.76-.3 16.59-1.17 16.59-8.75zm-22.83-20.25c0-2.24.68-3.35 3.24-3.38h4.84c2 0 3.12.89 3.12 2.49v12.35h-11.2z" clip-rule="evenodd"/><path fill="none" stroke="#000" stroke-miterlimit="10" stroke-width=".74" d="M293.25 465.73v-7.72"/><path d="M257.25 484.38v-9.88h-15.74v5.88h4.19v30.43h-4.19v6.38h19.7v-6.38h-3.96V494.5c0-1.52 9.25-13.23 9.25-11.88v16.2h10.9V480.6c0-4.17-2.74-6.86-7.72-6.86-5.88 0-9.88 7.43-12.43 10.65"/><path d="M63.44 496.44v-5.69h-6.13v20.07h10.62v6.37H36.78v-6.37h8.29v-45.09h-6.51v-7.75h242.58v7.75H57.31v18.11h6.13v-5.35h7.05v17.95z"/><path fill-rule="evenodd" d="M287.34 457.7h11.57v7.63h-11.57z" clip-rule="evenodd"/></svg>