<svg xmlns="http://www.w3.org/2000/svg" width="2179" height="2500" viewBox="5.3 4.76 340 390"><path fill="#f7de9f" d="M165.14 391.9c-5.5-3.09-21.24-15.18-33.73-25.93a356 356 0 0 1-55.17-59.61c-35-47.65-56.65-103.07-66.11-169.28-4.52-31.6-6.27-75.73-3.4-85.57A29.8 29.8 0 0 1 17.9 35.8c5.65-3.96 23.7-11.08 39.9-15.74C92.1 10.2 130 5.47 174.97 5.44c57.33-.03 104.25 7.62 143.84 23.46 14.13 5.65 19.36 9.7 23.44 18.17l2.68 5.56-.06 24.33c-.18 67.62-15.43 133.35-43.24 186.37-7.1 13.51-23.85 39.65-32.14 50.13-15.35 19.38-33.08 37.98-50.68 53.14-11.89 10.24-29.48 23.58-34.35 26.06-6 3.05-13.05 2.77-19.33-.76m11.9-1.73a8 8 0 0 0-3.35 0c-.92.24-.17.44 1.67.44s2.6-.2 1.67-.44m-37.98-24.03c0-.2-.76-.97-1.68-1.7-1.51-1.22-1.55-1.18-.36.36 1.25 1.62 2.04 2.14 2.04 1.34m-5.74-4.82c0-.17-1.18-1.38-2.62-2.67l-2.63-2.36 2.31 2.67c2.17 2.5 2.94 3.13 2.94 2.36m-13.37-12.82c-3.39-3.48-6.37-6.33-6.63-6.33s2.29 2.85 5.67 6.33 6.37 6.33 6.64 6.33-2.3-2.85-5.68-6.33m-14.33-14.6c-3.39-3.48-6.37-6.32-6.63-6.32s2.29 2.84 5.67 6.32c3.39 3.48 6.37 6.33 6.63 6.33s-2.29-2.85-5.67-6.33m-8.6-9.56c0-.18-1.18-1.38-2.63-2.68l-2.63-2.36 2.32 2.68c2.17 2.5 2.94 3.12 2.94 2.36m-5.73-6.83c0-.19-.97-1.17-2.15-2.2l-2.15-1.85 1.82 2.2c1.7 2.05 2.48 2.62 2.48 1.85m-3.82-4.87c0-.19-.97-1.17-2.15-2.2l-2.15-1.84 1.82 2.18c1.7 2.06 2.48 2.64 2.48 1.86m-3.83-4.9c0-.2-.75-.97-1.67-1.7-1.51-1.21-1.55-1.18-.36.37 1.25 1.62 2.03 2.13 2.03 1.33m-2.86-3.9c0-.2-.75-.96-1.67-1.7-1.52-1.2-1.55-1.17-.36.37 1.24 1.62 2.03 2.14 2.03 1.34m-2.87-3.88c0-.2-.75-.97-1.67-1.7-1.51-1.22-1.55-1.18-.36.36 1.25 1.62 2.03 2.14 2.03 1.34m-13.37-20.08c-.57-1.07-1.24-1.94-1.5-1.94-.27 0-.02.87.54 1.94s1.24 1.95 1.5 1.95.02-.87-.54-1.95m-2.87-4.86c-.56-1.07-1.24-1.95-1.5-1.95s-.02.88.55 1.95c.56 1.07 1.23 1.94 1.5 1.94s.01-.87-.55-1.94m-2.86-4.87c-.57-1.07-1.24-1.94-1.5-1.94s-.02.87.54 1.94 1.24 1.95 1.5 1.95.02-.88-.54-1.95m-8.79-17c-2.74-5.6-5.13-10.02-5.32-9.83-.42.43 9.18 20.01 9.82 20.01.25 0-1.77-4.58-4.5-10.18m-8.28-17.73c-1.13-1.97-1.4-1.34-.48 1.1.33.88.8 1.38 1.04 1.13.25-.25 0-1.25-.56-2.23M133.5 67.05c-.69-.28-1.51-.25-1.83.08-.32.32.25.55 1.26.5 1.1-.04 1.34-.27.57-.58M13.31 48.69c.33-.87.17-1.26-.37-.92-.52.33-.95 1-.95 1.51 0 1.4.69 1.1 1.32-.6m325.42.64c0-.47-.9-1.9-1.98-3.16l-1.98-2.3 1.7 3.17c1.78 3.27 2.26 3.76 2.26 2.3zm-226.25-14.4c-.69-.28-1.51-.24-1.83.08s.25.55 1.26.51c1.11-.05 1.34-.28.57-.59m41.38-1.28c.95-1.07 1.52-1.95 1.25-1.95s-1.25.88-2.2 1.95-1.52 1.95-1.25 1.95 1.25-.88 2.2-1.95M129.68 33c-.69-.29-1.51-.25-1.83.07s.25.56 1.25.51c1.12-.04 1.34-.27.58-.59zm114.64-18.5c-.69-.28-1.5-.24-1.83.08-.31.32.25.55 1.26.51 1.11-.04 1.34-.28.57-.59m-7.64-.97c-.69-.28-1.51-.25-1.83.08-.32.32.25.55 1.26.5 1.1-.04 1.33-.27.57-.58m-7.58-.95a3.6 3.6 0 0 0-2.39 0c-.66.27-.12.49 1.2.49 1.3 0 1.85-.22 1.19-.5m-94.64-1c-.7-.28-1.52-.24-1.83.08s.24.55 1.25.51c1.11-.04 1.34-.28.58-.59m83.63 0a5.4 5.4 0 0 0-2.86.03c-.65.27.11.47 1.69.45s2.1-.24 1.17-.49m-65.44-1c-1.72-.23-4.3-.22-5.73 0s-.03.4 3.12.4c3.15-.01 4.33-.2 2.61-.4m50.64 0c-1.72-.23-4.3-.22-5.74 0s-.03.4 3.13.4c3.15-.01 4.32-.2 2.6-.4"/><path fill="#f9ce5c" d="M166.38 392.29c-17.1-9.15-57.07-45.37-77.85-70.56-52.9-64.1-79.29-141.55-82.87-243.2-.89-25.18.76-31.7 10.15-40.3 11.99-11 59.23-24.66 101.27-29.3C195.16.3 270.12 8.4 323.65 31.23c14.96 6.4 20.77 14.9 21.56 31.56.51 10.94-1.18 43.63-3.18 61.2-12.28 108.2-56.72 190.1-137.95 254.24-17.02 13.45-21.07 15.83-27.6 16.23-4.38.27-6.31-.15-10.1-2.17m22.06-7.27c30.9-21.36 62.73-52.97 85.78-85.17 30.5-42.6 50.6-93.12 60.63-152.33 5.89-34.72 8.38-84.77 4.83-96.84-2.09-7.1-8.53-12.2-22.55-17.81-40.84-16.37-96.72-24.8-153.71-23.2-51.83 1.45-93.7 8.93-129.6 23.15-10.26 4.06-12.86 5.55-17.33 9.86-5.14 4.98-5.28 5.25-6.45 12.91-1.38 9.04-.1 43.94 2.45 66.63C24.9 232.4 70.16 314.58 153.93 378.9c13.13 10.08 16.48 11.94 21.56 11.94 3.96 0 5.59-.74 12.95-5.82m-22.65.8c-4.45-2.76-17-12.46-26.73-20.65-52-43.8-87.84-97.1-108.43-161.26-7.91-24.69-13.87-53.7-17.18-83.7-1.6-14.52-3.5-56.14-2.76-60.77 1.16-7.35 1.2-7.42 3.34-6.26 3.03 1.66 4.39-.3 2.37-3.43-1.24-1.93-1.37-2.94-.57-4.46 5.23-9.96 53.1-25.19 96-30.54 20.72-2.59 37-3.48 63.63-3.48 51.45 0 90.26 5.46 127.44 17.96 16.8 5.65 26.94 10.16 29.65 13.22 1.7 1.9 1.7 2.1.1 4.87-2.1 3.6-1.4 4.82 2.77 4.82 3.47 0 3.4-.1 4.67 7.64.79 4.78-1.14 47.17-2.84 62.44q-11.73 105.52-65.8 179.74c-21.23 29.15-53.85 61.33-82.61 81.51l-6.85 4.8-1.53-2.23c-1.3-1.9-2.13-2.16-5.44-1.7-2.14.29-4.37 1.19-4.95 2-.93 1.3-1.44 1.23-4.28-.52m-20.6-121.09c1.69-1.71 2.02-4.31.55-4.31-.52 0-.95.43-.95.95s-1.08 1.23-2.4 1.57c-2.38.6-2.94 1.45-1.74 2.67 1.07 1.1 2.97.73 4.55-.88m-25.24-12.64c0-.24-.43-.43-.96-.43s-.95.47-.95 1.03.43.76.95.43.96-.8.96-1.03m66.76-8.25c-1.6-2.66-3.07-4.83-3.26-4.83s.82 2.34 2.23 5.2 2.88 5.04 3.26 4.83-.63-2.55-2.23-5.2m15.88-16.5c.34-.57-.34-.88-1.58-.74-1.72.2-2.3-.37-2.81-2.68-.6-2.72-.65-2.75-.76-.43-.17 3.75 3.53 6.51 5.14 3.84zM181 212.36c4.3-.83 5.82-2.24 5.82-5.41 0-2.85-2.78-7.65-2.83-4.9-.02.83-1.93 3.4-4.25 5.72s-4.44 5.08-4.71 6.13c-.44 1.72-.33 1.77 1.11.5.89-.78 3.07-1.7 4.86-2.04m30.64-1.56c-6.33-.84-8.52-1.94-11.81-5.92-4.1-4.96-2.97-10.66 2.6-13.13l3.02-1.34-3.4-.04c-10.02-.11-10.18 13.99-.22 19.34 2.54 1.37 5.34 1.93 9.36 1.87l5.73-.09zm26.7-9.27c-.04-1.07-.3-1.4-.56-.73s-1.3 1.21-2.31 1.21c-1 0-1.83.33-1.83.73s1.07.73 2.39.73c1.77 0 2.37-.5 2.3-1.94zm-101.71-5.64c1.6-2.5 3.9-4.82 5.14-5.17 2.61-.75 9.06 1.14 12.8 3.75 3.76 2.62 8.63 3.24 10.2 1.31.7-.85 2.4-1.57 3.78-1.58 2.41-.03 2.44-.09.66-1.46-1.15-.9-4.06-1.44-7.65-1.45-7.02-.02-10.09-1.46-12.04-5.66l-1.48-3.18-1.81 2.04c-2.57 2.89-5.6 2.18-6.23-1.46l-.5-2.92-2.95 4.38c-4.19 6.2-6.1 10.25-6.1 12.93 0 5.15 2.25 4.59 6.18-1.53m57.6-11.34c.98-.23-.12-6.68-1.65-9.74-1.44-2.88-2.63-3.93-5.02-4.4-9.4-1.9-11.72-4.8-10.85-13.53.66-6.65.6-6.8-4.52-10.69-2-1.52-4.12-3.82-4.7-5.1-1.36-3.06-2.73-2.95-9.3.73-7.7 4.31-8.42 5.81-4.92 10.34a20 20 0 0 1 3.46 7.76c.36 2.31 1.17 4.14 1.84 4.14 1.77 0 3.41 4.38 3.41 9.06 0 3.47.66 4.88 4.2 9l4.2 4.89 11.8-1.2c6.5-.66 11.92-1.23 12.05-1.26m20.72-7.4c-1.29-3.5-3.65-11.5-5.24-17.76a124 124 0 0 0-7.25-20.4c-4.13-8.54-5.33-10.06-6.46-8.18-.63 1.04 4.38 13.62 7.98 20.05 1.52 2.7 3.9 9.52 5.28 15.14 1.45 5.89 3.57 11.77 4.98 13.87 1.35 2.01 2.6 3.65 2.76 3.65.17 0-.75-2.87-2.05-6.37m-22.63-50.4c-4.96-4.12-2.44-7.16 3.61-4.35 1.93.9 2.4 1.7 2.07 3.48q-.41 2.27.5 1.37c1.71-1.75.29-4.54-3.2-6.28-6.25-3.12-9.46.55-4.56 5.22 1.64 1.56 3.25 2.81 3.59 2.8s-.57-1.03-2.01-2.23m39.93-5.97c.76-1.86 1.38-4.38 1.38-5.6 0-2.97-3.2-8.14-5.91-9.59l-2.2-1.17 2.03 2.32c4.44 5.1 5.27 9.51 2.72 14.54-.9 1.78-1.07 2.87-.43 2.87.56 0 1.65-1.52 2.41-3.37m-70.09-22.93c-4.23-2.63-3.93-6.27.78-9.5 2.68-1.84 4.34-2.23 8.36-1.98 3.42.21 5.02-.06 5.02-.85 0-.64 2.04-1.82 4.53-2.62l4.54-1.47-5.73.5c-8.78.8-15 2.9-19.07 6.48-3.1 2.74-3.58 3.65-3.04 5.84a7.5 7.5 0 0 0 3.25 4.05c3.92 2.16 5 1.8 1.36-.45M36.7 73.8c-.32-19.12-.31-19.23 1.81-20.18 3.18-1.43 2.6-2.5-.72-1.33l-2.87 1.02v19.85c0 13.75.32 19.86 1.05 19.86s.95-5.73.72-19.22m157.6 18.37c1-.64.88-.93-.5-1.3a3.3 3.3 0 0 0-2.98.84c-.98 1.07-.89 1.3.5 1.3a7 7 0 0 0 2.99-.84M312.72 53.2c1.47.56 2.2.6 1.66.08a9 9 0 0 0-3.1-1.59l-2.16-.66.22 20.26.22 20.26.28-19.68.28-19.67zM53.55 82.08q.93-.94-1.43-.24c-3.74 1.1-8.6 3.25-8.6 3.77 0 .72 8.93-2.43 10.03-3.53m9.17-18.64c4.06-17.93 4.24-18.42 7.05-19.67l2.89-1.28-2.51-.04c-1.38-.02-2.94.5-3.47 1.18-.95 1.2-9.84 38.59-9.73 40.89.13 2.54 1.75-3.36 5.76-21.08zM294.9 80.68c-1.13-1.97-1.4-1.34-.48 1.1.33.88.8 1.39 1.04 1.14s0-1.26-.56-2.24m-13.02-37.06c1.28.25 2.1.08 1.83-.38-.28-.46-1.56-.83-2.84-.83h-2.33l.22 19.7.22 19.72.28-19.33.28-19.34zM75.47 76.04c-.36-1.95-.87-3.33-1.13-3.06s-.19 2.08.17 4.04c.36 1.95.87 3.33 1.13 3.06s.19-2.09-.17-4.04m12.3-17.23c.17-18.73.19-18.84 2.32-19.14 1.18-.17 2.15-.77 2.15-1.33 0-.59-.92-.77-2.15-.44-1.18.33-2.47.6-2.86.6-.4.01-.72 9.07-.72 20.13s.24 19.87.54 19.57.62-9.03.71-19.39m181-18.62c2.4-.38 2.36-.42-.5-.55l-3.1-.15.21 19.7.22 19.72.28-19.16.28-19.16zM98.07 67.26c-1.35-3.96-2.6-7.05-2.78-6.87-.18.19.66 3.86 1.87 8.16 1.2 4.3 2.46 7.4 2.77 6.87s-.52-4.2-1.86-8.16m154.42-4.17c-.2-2.54-.36-.46-.36 4.63s.17 7.16.36 4.62c.2-2.54.2-6.7 0-9.25m-143.05 1.06c0-5.71-.16-10.2-.35-9.98-.82.95-1.31 20.36-.52 20.36.48 0 .87-4.67.87-10.38M122.8 53.6V34.75l4.29-.65c2.36-.36 5.8-.48 7.64-.26 1.85.22 3 .03 2.55-.42-.44-.45-4.2-.69-8.36-.53l-7.55.28-.26 20.27c-.17 13.6.07 20.06.72 19.65.6-.38.97-7.7.97-19.48M238.2 35.5l2.61-.1-2.39-.72c-1.31-.4-2.7-.55-3.1-.33s-.62 9.23-.5 20.04l.22 19.65.28-19.22.28-19.23zm61.16 13.1c2.54.53 2.53.51-.27-.79l-2.87-1.32-.47 11.83c-.27 6.5-.27 12.48 0 13.29.26.8.6-4.17.74-11.05l.27-12.5zM153.03 67.69c-2.95-3.58-3.92-7.94-3.82-17.22.08-7.96 2.32-15.1 5.42-17.3 1.13-.81 3.78-1.48 5.9-1.5 3.17-.02 3.54-.2 2.1-1.06-2.4-1.41-6.34-.24-9.5 2.83-6.74 6.52-7.42 27.8-1.12 34.74 3.15 3.46 3.96 3.07 1.02-.5m33.73-35.84c4.14.19 7.04.02 6.43-.37-.61-.4-4.23-.73-8.04-.73l-6.92-.02.21 20.2.22 20.2.28-19.82.28-19.81zm6.27 32.95c-.9-2.75-1.84-4.78-2.1-4.51s.25 2.73 1.15 5.48 1.84 4.77 2.1 4.5c.27-.26-.25-2.73-1.15-5.47m-56.77 1.39c2.27-2.09 2.46-8.02.35-10.7-1.43-1.82-1.45-1.81-.47.24 2.5 5.28.1 11-4.64 11.03a8 8 0 0 0-3.91 1.05c-1.07.77-.39.91 2.7.55 2.28-.26 4.96-1.24 5.97-2.17m71.92-.66c-2.15-4.18-2.89-17.8-1.28-23.65 1.64-5.96 5.78-9.5 10.59-9.03 1.96.2 3.36.01 3.11-.4s-2.18-.74-4.29-.74c-4.72 0-8.73 3.63-10.28 9.32-1.73 6.32-1.29 18.77.83 23.52 1.02 2.28 2.1 4.14 2.4 4.14s-.2-1.43-1.08-3.17M72 66.87c1.04-.67 1-1.66-.22-5.58l-1.48-4.77.54 4.44c.48 3.96.3 4.55-1.7 5.53-2.02 1-2.05 1.1-.31 1.15a6.6 6.6 0 0 0 3.17-.77m150.13-1.04c.54-1.03.98-2.46.97-3.16s-.56-.19-1.24 1.15c-1 1.97-1.9 2.41-4.74 2.33-1.93-.06-3.28.27-3 .73 1.03 1.69 6.98.9 8-1.05m-57.05-2.98c1.2-2.44 1.67-5.75 1.67-11.68 0-10.4-1.86-14.94-6.3-15.38-1.74-.17-3.42.3-4.12 1.16-1.04 1.27-.8 1.3 1.84.3 2.72-1.05 3.19-.95 4.79 1.06 3.46 4.36 3.74 20.04.45 25.16-1.25 1.94-2.21 2.4-4.34 2.09-1.5-.23-2.5-.03-2.21.44.28.47 1.87.72 3.53.55 2.36-.23 3.38-1.04 4.69-3.7M109.1 36.56a7 7 0 0 1 2.72-1.24q1.93-.47-1.07-.58l-2.99-.12-3 10.47c-1.64 5.75-2.96 11.12-2.93 11.92.04.8 1.5-3.3 3.26-9.1 1.76-5.82 3.57-10.92 4.01-11.35m114.32 16.3 4.95-.36-5.5-.18c-5.42-.17-5.48-.14-5.35 2.5.1 2.22.2 2.31.53.54.35-1.82 1.16-2.2 5.37-2.5m-81.95.32c-.34-.57-1.08-1.04-1.64-1.04-.64 0-.56.56.19 1.49 1.3 1.6 2.48 1.25 1.45-.45m111.26-7.96v-7.89l2.63.62c1.95.47 2.26.37 1.2-.36-.8-.54-2.19-1-3.1-1-1.46-.02-1.68 1-1.68 7.78v7.79l-5.02-.38c-3.9-.3-4.27-.23-1.67.34 7.87 1.7 7.64 1.9 7.64-6.9M135.3 48.4c2.72-2.24 2.93-7.33.4-9.69-1.64-1.52-1.68-1.52-.58-.01 1.56 2.11 1.02 7.67-.83 8.64a34 34 0 0 1-4.78 1.7l-3.34.96 3.48.1c2.07.06 4.35-.63 5.65-1.7m58.22-1.12c2.29-2.33 2.5-7.05.41-9.18-2.17-2.21-2.67-1.88-.94.63 3.32 4.84 1.23 8.46-5.52 9.59l-3.98.66 4.06.12c2.9.09 4.6-.43 5.97-1.82m28.29-6.55c-.32-.33-.55.25-.5 1.27.04 1.14.26 1.37.57.6.28-.71.24-1.55-.08-1.87"/><path fill="#d8a016" d="M167.23 392.5c-11.49-5.59-41.56-30.92-61.62-51.9-54.73-57.27-85.27-125.01-96.48-214-1.49-11.83-3.81-47.41-3.82-58.54-.01-18.04 5.63-29.04 17.95-35 13.2-6.38 39.67-14.68 59.9-18.79 35.37-7.18 84.86-10.36 122.3-7.86 41.93 2.8 73.5 8.7 103.9 19.4 21.74 7.66 28.25 12.08 33.08 22.44 2.48 5.31 2.5 5.52 2.32 26.76-.73 87.3-23.4 164.31-66.4 225.56-20.2 28.8-48.84 58.18-79.7 81.79-16.48 12.61-22.4 14.52-31.43 10.13m20.78-6.84c22.52-15.32 57.97-48.7 75.64-71.23 18.95-24.16 39.1-59.03 49.22-85.15 15.54-40.16 24.26-81.27 27.76-130.9 1.16-16.58 1.22-39.58.1-44.49-.57-2.47-.49-3.72.24-3.97 1.4-.47-1.83-5.56-3.53-5.56-.69 0-2.29-1.14-3.56-2.53-8.99-9.82-55.23-23.6-97.38-29.03-30.62-3.94-82.14-4.44-112.73-1.08-47.03 5.16-97.2 19.42-107.39 30.52-1.52 1.66-3.09 2.82-3.47 2.58-4.94-3.11-4.88 43.16.1 83.24 10.95 88.02 42.36 156.13 98.3 213.2 19.73 20.13 43.72 40.35 56.62 47.74 6.93 3.96 10.13 3.43 20.08-3.34m-18.04-4.9c-2.17-1.28-8.37-5.75-13.77-9.92s-10.4-7.58-11.09-7.58-2.66-1.27-4.37-2.83l-3.12-2.82 3.59 2.61c4.81 3.52 4.55 2.54-.41-1.52-2.2-1.8-3.67-2.75-3.29-2.11 1.6 2.62-1.19.88-4.7-2.96-2.09-2.26-2.71-3.25-1.4-2.2 1.32 1.06-4.72-5.52-13.4-14.62-15.31-16.03-29.96-33.67-39.57-47.68-5.48-7.98-6.93-9.69-5.36-6.32l1.14 2.43-1.96-2.43c-1.08-1.34-1.75-3-1.5-3.7.24-.7.04-1.02-.46-.7-.96.6-4.11-4.74-3.3-5.58.27-.26-1.64-4.45-4.22-9.3a391 391 0 0 1-18.29-39.36c-2.98-7.36-5.69-13.12-6-12.8-.32.32-.35-.45-.08-1.7q.48-2.26-.35-1.08c-1.21 1.71-4.44-7.75-3.63-10.65.5-1.8.4-1.96-.46-.78-.84 1.14-.94.7-.48-1.95.47-2.69.36-3.1-.51-1.94-.94 1.24-1.02 1.19-.54-.32.31-.98-.48-6.01-1.76-11.2-6.22-25.1-12.7-69.76-13.02-89.7-.05-3.07-.29-3.81-.8-2.48-.67 1.75-.77 1.71-1.35-.5-.34-1.3-.63-4.67-.64-7.48-.02-7.75-1.9-6.75-3.2 1.7-.2 1.34-.42-4.13-.49-12.16s.2-15.04.59-15.58c.38-.53 1.98-.97 3.55-.97q5.16 0 2.09-6.29c-1.34-2.73-1.28-3.01 1.12-5.5 2.44-2.52 11.44-7.23 16.39-8.56 2.3-.62 2.3-.6-.24.88-1.44.84-2.63 1.95-2.63 2.47 0 1.2-.02 1.2 4.78-.52 4.84-1.74 6.07-1.83 5.2-.38q-.64 1.06 1.13.5C63.72 30.6 81.33 26.2 99.89 23c8.78-1.51 14.91-2.96 13.85-3.29-1.05-.31.24-.36 2.86-.09 3.65.37 4.44.23 3.35-.6-1.1-.82-.18-.97 3.82-.6 2.89.26 14.5.1 25.8-.36 38.08-1.55 53.98-1.9 52.79-1.12-.65.41 5.2 1.3 13 1.94 17.31 1.46 43.7 5.3 58 8.44 5.83 1.29 11.64 2.1 12.9 1.82 1.89-.43 2.05-.32.88.6-1.18.93-1.07 1.02.63.53 2.47-.7 7.2.35 6.52 1.45-.26.43.46.53 1.6.23 1.5-.4 1.85-.22 1.3.68-.55.92-.2 1.05 1.41.54 1.38-.45 1.93-.34 1.55.3-.35.57 1.53 1.72 4.41 2.69 9.54 3.2 20.32 8.33 23.02 10.94 5.68 5.47 5.9 6.6 5.7 28.17-.17 16.73-2.02 46.47-3.65 58.63-.52 3.82-.23 3.17 2.58-5.84 1.08-3.48 2.34-6.8 2.8-7.38s1.23-3.43 1.74-6.33c.87-5 .9-4.9.41 2.03-3.34 48.58-19.85 106.43-42.02 147.27-18.87 34.76-46.14 69.17-72.98 92.09l-6.2 5.3 4.35-4.81c2.39-2.65 5.04-6.4 5.9-8.35a38 38 0 0 1 4.68-7.3l3.13-3.76-3.3 2.97c-1.81 1.64-6.09 5.55-9.5 8.7-7.47 6.89-26.82 22.7-35.52 29.02-7.93 5.76-10.57 6.3-15.73 3.25M145.74 265.3c4.05-4.13 1.62-7.06-3.08-3.7-1.72 1.23-3.3 2.33-3.5 2.45-.78.46 2.1 3.2 3.36 3.2.72 0 2.17-.88 3.22-1.95m-25.2-14.64c.08-1.58-.17-2.88-.54-2.88-1.3 0-3.17 4.74-2.54 6.42.92 2.43 2.9.16 3.08-3.54m70-.58c1.76-.9 1.93-1.3.87-1.96-.74-.46-2.26-2.36-3.38-4.24-2.52-4.22-6-8.08-6.68-7.4-.28.29.9 2.74 2.6 5.46 2.57 4.07 3.03 5.6 2.61 8.73-.55 4.2.42 6.37 1.25 2.79a6 6 0 0 1 2.73-3.38m50.72-1.57c0-.67-.38-1.81-.83-2.54-1.05-1.69-2.43.27-1.65 2.34.65 1.73 2.5 1.88 2.49.2zm-38.2-21.24c0-.46-.86-1.3-1.9-1.88s-1.92-1.68-1.92-2.46c0-.79-.43-1.43-.95-1.43-1.64 0-1.08 5.67.66 6.66 1.73 1 4.11.47 4.11-.89m-75.2-13.56.51-5.35-1.48 3.4a31 31 0 0 0-1.82 8.28c-.34 4.79-.32 4.82.96 1.94.72-1.6 1.53-5.32 1.82-8.27m50.17 6.18c.24-1.64 1-1.93 4.92-1.87 5.35.08 8.2-1.9 9.17-6.43.47-2.2.14-3.43-1.39-5.08-1.1-1.2-3.67-5.58-5.7-9.73-4.2-8.55-4.03-8.91 3.74-8.15 2.6.26 4.74.16 4.74-.2 0-1.28 4.88-2.94 8.64-2.94 2.73 0 4.1.53 4.96 1.94.65 1.07 1.84 1.94 2.63 1.92 1.15-.02 1.1-.23-.23-1.02-2.97-1.76-1.77-2.94 1.34-1.3 2.31 1.21 2.7 1.77 1.67 2.43-.98.63-.7.86 1.05.85 2.39-.01 2.39-.02-.73-2.9-2.38-2.21-4.03-2.9-6.99-2.9-2.12 0-4.7-.45-5.71-1-2.27-1.24-2.56-4.35-.33-3.48.84.33 2.67.85 4.06 1.15l2.54.55-2.39-2.14a19 19 0 0 0-5.01-3.08c-3.16-1.13-3.43-3.44-.55-4.52 1.96-.74 1.92-.82-.72-1.38-1.8-.38-3.4-1.68-4.47-3.64-1.47-2.69-2.01-2.97-4.57-2.4-3.27.73-7.6-1.51-7.6-3.92 0-.8.9-2.36 2-3.49l2.02-2.05-1.85-5.98c-1.77-5.72-2.07-6.09-7.13-8.57-7.85-3.85-8.12-7.07-1.01-11.99 4.3-2.97 7.67-3.1 12.76-.45 4.13 2.15 6.58 6.41 6.58 11.46q0 2.81 5.19 9.99c5.38 7.43 7.61 13.11 7.07 18-.26 2.3-.85 2.91-3.19 3.27-2.52.38-2.34.5 1.44.97 3.6.45 4.53 1.03 5.76 3.52 1.96 4 6.63 9.97 6.64 8.5.01-.66-.88-3.5-1.98-6.34s-3.47-10.84-5.28-17.8c-1.9-7.3-5-16.11-7.33-20.86a497 497 0 0 1-4.34-9c-.18-.44.56-.8 1.64-.8 3.16 0 8.54 5.63 12.63 13.21 4.02 7.46 7.25 10.47 10.7 9.97 1.8-.26 2.07-.86 1.92-4.34-.2-4.67-3.31-11.49-6.06-13.23q-4.16-2.67 1.4-2.68c3.3 0 5.2-1.3 3.47-2.4-.51-.32-4.12-1.4-8.03-2.43s-11.45-3.88-16.77-6.36c-5.86-2.74-10.37-4.29-11.45-3.94-.99.32-4.12 2.65-6.95 5.18-7.84 6.98-14.03 11.32-20.88 14.62-11.49 5.53-13.85 9.43-16.61 27.4-.86 5.6-1.91 10.4-2.34 10.7-1.79 1.25-10.83 14.14-12.12 17.3-1.7 4.13-1.76 6.2-.3 9.47 1.38 3.09 4.9 3.3 6.9.4 2.2-3.21 4.43-1.73 3.76 2.51-.36 2.26-.18 3.46.53 3.46 1.69 0 4.93-3.73 6.44-7.43 1.82-4.42 3.58-4.96 7.98-2.44 4.59 2.63 9.96 2.7 13.13.15 1.33-1.06 2.76-1.71 3.19-1.44 1.04.65 2.34-1.52 2.34-3.9 0-2.63 2.97-3.04 4.26-.6.77 1.48.73 2.5-.14 3.92-1.7 2.75-.15 3.7 3.01 1.85l2.71-1.59.41 3.54c.36 3.17-.06 4-4.16 8.06-5.05 5-6.41 8.5-4.76 12.2 1.23 2.77 3.3 2.6 3.73-.3m-37.06-20.35c0-2.9 1.56-6.27 2.9-6.27 1.32 0 1.14 6.2-.23 7.6q-2.69 2.73-2.67-1.33m12.88-12.74a13 13 0 0 1-2.44-3.92c-1.26-3.37-3.5-3.82-6.19-1.24-2.82 2.7-3.92 1.97-2.55-1.72.55-1.49 1.51-6.82 2.14-11.86 1.8-14.38 5.87-16.75 9.13-5.32.82 2.88 2.1 5.86 2.86 6.62s1.36 3.15 1.36 5.3c0 3.15.73 4.76 3.82 8.4 2.1 2.47 3.82 4.68 3.82 4.92s-2.33.43-5.18.43c-3.55 0-5.69-.51-6.77-1.61m38.23-61.15c-2.3-1.93-2.6-2.58-1.52-3.31 2.64-1.78 8.52 2.12 6.65 4.41-1.44 1.77-1.81 1.69-5.13-1.1m28.34 85.37c.94-.95-.26-1.2-5.75-1.2-10.45 0-15.43-3.48-15.43-10.77 0-8.03 10.04-10.24 12.6-2.78.53 1.57 1.37 2.85 1.86 2.85.53 0 .49-.78-.1-1.89-1.6-3.07-1.15-3.95 2.12-4.07 2.33-.08 1.83-.33-1.97-.97-2.8-.48-5.89-1.3-6.87-1.84-3.9-2.12-10.42-.7-13.1 2.84-3.35 4.45.56 13.66 7.37 17.36 3.64 1.98 5.36 2.29 11.2 2 3.8-.18 7.42-.87 8.07-1.53m19.35-6.2c-.37-.6-.72-2-.78-3.08-.05-1.09-.7-2.18-1.43-2.43-.8-.27-1.06-.02-.66.65s-.05 1.1-1.2 1.1c-1.02 0-2.1.66-2.4 1.46-.42 1.1.14 1.46 2.22 1.46 1.53 0 3.05.44 3.37.97s.8.98 1.07.98c.26 0 .17-.5-.2-1.1m-3.85-24.76c.72-1.9-.35-9.17-1.34-9.17-1.52 0-2.6 8.69-1.26 10.06 1.04 1.06 1.99.74 2.6-.9zm-98.75-5.43c2.09-3.3 3.8-6.47 3.79-7.05s-1.08.82-2.38 3.14c-1.3 2.3-3.25 5.48-4.35 7.05s-1.74 2.85-1.43 2.85 2.27-2.7 4.37-5.99m101.69-21.47c-.68-4.08-2.14-5.6-3.4-3.56-1.42 2.27-.96 7.57.8 9.4 1.6 1.67 1.7 1.66 2.44-.21.42-1.08.5-3.61.16-5.63m-96.36 1.45c-.32-.33-.54.25-.5 1.27.04 1.14.27 1.37.57.6.28-.7.24-1.55-.07-1.87m7.54-13.89c.95-1.07 1.52-1.95 1.25-1.95-.26 0-1.25.88-2.2 1.95s-1.52 1.95-1.25 1.95 1.25-.88 2.2-1.95m84.1-22.72c1.27-6.85-4.85-14.32-12.94-15.8-3.31-.61-3.3-.6.97 1.68 7.51 4.01 10.9 12.63 7.11 18.13-.82 1.2-1.18 2.68-.8 3.3 1.02 1.67 4.95-3.4 5.67-7.3zm-57.35 5.2c.95-1.07 1.52-1.95 1.25-1.95s-1.25.88-2.2 1.95-1.52 1.95-1.25 1.95 1.25-.88 2.2-1.95m6.21-5.35c.66-.8.98-1.46.71-1.46s-1 .65-1.66 1.46-.98 1.46-.71 1.46c.26 0 1-.66 1.66-1.46m-16.72-18.57c-8.25-3.02-8.66-8.66-.85-11.7 3.78-1.47 6.18-1.42 10.32.2q1.51.6 1.52-1c0-2.1 3.75-3.46 9.85-3.58 3.92-.08 4.46-.26 2.57-.88-9.8-3.2-27.86 1.88-31.98 8.98l-1.75 3.02 3.47 3.25c2.71 2.52 4.28 3.23 7.08 3.18l3.6-.07zM36.83 73.6c0-16.26.23-19.39 1.43-19.86 1.24-.49 1.44 1.73 1.44 16.44 0 18.89-.35 18.07 6.68 15.54 4.67-1.68 5.74-1.8 5.74-.62 0 .47-3.25 2.05-7.21 3.53-3.97 1.47-7.05 2.85-6.84 3.06s3.63-.82 7.6-2.27c6.41-2.35 7.29-2.97 7.64-5.38.43-2.99.03-3-6.8-.15-6.16 2.57-5.97 3.08-5.66-15.69.15-9.36.24-17.03.18-17.03s-1.45.48-3.1 1.07l-3.01 1.07v20.4c0 13.35.33 20.2.96 19.8.58-.37.95-8.09.95-19.9m158.43 18.57c.96-.62.73-.97-.92-1.41-1.2-.32-2.43-.2-2.71.27-.3.47-2.02 1.04-3.86 1.27-2.68.33-2.4.44 1.44.55 2.63.08 5.35-.23 6.05-.68m115-20.19-.27-19.1 2.67.68c3.15.79 1.93-.84-1.4-1.86l-2.15-.66v20.02c0 11 .32 20.01.72 20.01s.59-8.59.44-19.09m-18.46-.26c-3.24-8.12-6.06-14.58-6.27-14.37s1.83 6.03 4.54 12.92l5.8 14.86c.48 1.27 1.09 2.1 1.35 1.84s-2.18-7.13-5.42-15.25m-228.7 7.9c.9-6.14 1.25-6.78 4.13-7.48a99 99 0 0 0 4.16-1.1c1.27-.39 1.81.58 2.68 4.84l1.08 5.32 2.91-1.03c3.38-1.2 3.6 1.02-2.28-22.25L71.7 41.8l-2.94.78c-2.75.72-3.04 1.24-4.57 8.33-.9 4.16-3.05 13.74-4.78 21.29l-3.15 13.73 3.1-.97c2.72-.86 3.16-1.49 3.73-5.34m-3.01.22c-.31-.83-.35-1.72-.1-1.99.27-.26.71.41 1 1.5.59 2.33-.07 2.68-.9.49m.7-4.75c-.04-1.02.19-1.6.5-1.27s.35 1.16.08 1.86c-.3.78-.53.55-.58-.59m1.91-8.75c-.04-1.03.19-1.6.5-1.28s.35 1.16.08 1.87c-.3.77-.53.54-.58-.6m3.84-2.27c.05-1.48.61-4.87 1.25-7.55l1.15-4.86 1.2 6.72c.97 5.49.96 6.87-.06 7.53-2.36 1.52-3.64.86-3.54-1.85m-2.88-1.63c-.05-1.02.18-1.6.5-1.27.32.32.35 1.16.07 1.86-.3.78-.53.55-.57-.59m1.48-5.92c1.09-6.51 2.31-9.36 1.69-3.9-.31 2.69-.96 5.53-1.45 6.34-.57.95-.66.1-.24-2.44m2.28-10.46q-.02-1.71 2.13-1.63 2.16.07.72.64a5 5 0 0 0-2.14 1.62c-.43.66-.7.42-.71-.63M280.45 62.5V43.65l2.63.43c2.05.34 2.31.2 1.2-.6a7 7 0 0 0-3.6-1.05l-2.14-.02v19.47c0 12.32.35 19.46.95 19.46s.96-6.93.96-18.84M90.89 77.45c1.1 0 1.38-2.48 1.48-12.9.07-7.1.32-11.8.55-10.46.67 3.88 6.17 21.82 6.95 22.69.39.43.98-.88 1.32-2.92s2.1-8.31 3.91-13.93l3.3-10.22-.56 12.74-.57 12.75 2.96-.44 2.96-.44.27-19.85.28-19.85h-3.01c-2.91 0-3.09.25-5.12 7.06a377 377 0 0 0-3.76 13.68l-1.65 6.62-3.5-11.12c-1.93-6.12-3.5-11.62-3.5-12.22 0-1.22-1.33-1.36-4.54-.48-2.14.58-2.15.67-2.15 20.53 0 17.78.16 19.87 1.51 19.35a10 10 0 0 1 2.87-.6zm175.43-18.12-.28-19.1 2.43.62c1.33.34 2.43.23 2.43-.26s-1.3-1.07-2.87-1.3l-2.87-.44v19.79c0 10.88.33 19.78.72 19.78.4 0 .6-8.59.44-19.1m-13.83 2.3c-.19-2.8-.35-.5-.35 5.11s.16 7.92.35 5.11c.2-2.8.2-7.4 0-10.22m-118.15 9.9c5.2-1.33 7.82-4.8 8.33-11.04.38-4.63.14-5.58-1.9-7.66-2.27-2.31-2.28-2.42-.59-4.56 2.68-3.36 2.34-10.2-.64-13.24-2.21-2.26-2.95-2.41-10.27-2.15l-7.89.28-.26 20.06-.25 20.05 5.03-.43c2.77-.24 6.57-.83 8.44-1.31m-7.7-11.11v-6.33h3.67c4.4 0 6.83 2.3 6.83 6.5 0 3.83-2.64 6.15-7 6.15h-3.5zm.38-12.56c-.28-.73-.37-3.25-.2-5.58.26-3.8.56-4.28 2.87-4.55 4.15-.49 6.5 1.35 6.5 5.08 0 3.74-1.13 4.92-5.53 5.77-2.21.43-3.3.21-3.64-.72m109.48 6.6c0-18.6.05-19.08 1.91-18.58 1.05.28 1.91.16 1.91-.26 0-.69-3.16-1.92-5.01-1.95-.4-.01-.72 8.96-.72 19.93 0 12.65.35 19.95.96 19.95.6 0 .95-7 .95-19.09m62.85-5.73c2.57.5 2.57.5-.27-.87l-2.87-1.37-.27 11.24c-.24 10.12-.4 11.06-1.68 9.4-1.28-1.7-1.32-1.6-.41 1.07 2.1 6.19 2.37 5.45 2.63-7.07l.27-12.9zm-76.22 22.29q2.35-1.48.48-.8a54 54 0 0 1-5.26 1.4c-3.28.72-3.3.74-.48.81 1.58.05 3.94-.59 5.26-1.41m-58.46-1.38c3.83-2.39 5.81-6.9 6.55-14.9 1.52-16.58-5.93-28.06-15.28-23.54-4.8 2.32-7.55 8.44-8.09 18.04-1 17.54 6.6 26.75 16.82 20.4m-8.35-5.75c-3.93-4-3.98-20.64-.08-24.87 2.91-3.16 5.28-3.1 7.4.18 1.32 2.06 1.69 4.67 1.69 11.97s-.37 9.9-1.7 11.97c-1.99 3.09-4.74 3.37-7.3.75m42.92 5.73c0-.43-1.23-4.35-2.75-8.7L193.75 53l2.26-1.52c5.13-3.42 4.98-14.56-.26-18.76-2.04-1.63-3.88-2-10.01-2h-7.52v39.9h2.4c2.36 0 2.38-.06 2.38-8.75v-8.76h2.63c2.48.02 2.78.52 5.35 9.07 2.7 8.93 2.76 9.05 5.5 8.64 1.52-.23 2.76-.77 2.76-1.2m-4.11-.69c-.22-.4-1.57-4.34-3-8.76l-2.6-8.03h-3.74c-2.36 0-3.74-.45-3.74-1.21q.03-1.22 5.3-1.38c2.9-.08 5.87-.65 6.58-1.25 3.54-3 2.36-10.57-1.96-12.58-2.84-1.31-8.64-1.45-9.39-.22-.3.49-.61 5.73-.72 11.66s-.42 10.53-.72 10.23c-.29-.3-.74-5.98-1-12.63l-.48-12.09h6.71c7.81 0 10.3 1.33 11.92 6.34 1.5 4.6.42 8.76-2.95 11.45l-2.8 2.23 2.81 8.49c2.15 6.46 2.5 8.48 1.5 8.48-.72 0-1.5-.33-1.72-.73m-11.74-22.02c-.27-.74-.37-3.47-.2-6.08.28-4.56.4-4.76 3.38-5.05 6.17-.6 10.49 7.59 5.77 10.95-2.64 1.89-8.26 2-8.95.18m28.41 22.23c-3.73-3.2-5.22-7.98-5.3-17-.09-9.74 2.27-16.23 6.57-18.06a9.37 9.37 0 0 1 11.78 3.95c.6 1.07 1.1 1.37 1.11.66s-1.22-2.58-2.76-4.14c-2.14-2.18-3.67-2.85-6.56-2.85-8.28 0-12.07 7.1-11.5 21.57.39 9.96 2.43 15.94 5.95 17.39 3.48 1.43 3.67 1.02.71-1.52m9.71-1.86c3.34-3.4 2.72-11.24-.89-11.24-.72 0-1.31-.7-1.31-1.57q.01-1.54 1.5-.97c.84.32 2.54.59 3.78.59 2.04 0 2.3.49 2.6 5.1l.36 5.12.18-6.08.17-6.09h-5.25c-4.93 0-5.25.15-5.25 2.37 0 1.86.56 2.44 2.62 2.68 2.3.27 2.59.66 2.3 3.23-.5 4.3-1.86 6.33-4.24 6.3-3.55-.03-6.37-3.05-7.28-7.78q-.84-4.44-.94-1.75c-.32 8 7.25 14.57 11.65 10.09m5.25-1.05c-.29-.3-.82.24-1.18 1.2-.52 1.39-.41 1.5.53.54.65-.66.95-1.44.65-1.74m25.98-20.47c0-7.12.04-7.24 2.45-7.24 1.38 0 2.19-.42 1.85-.98-.32-.53-1.64-.97-2.92-.97-2.28 0-2.33.18-2.33 7.79 0 5.6-.34 7.77-1.2 7.73-.65-.04-3.23-.4-5.73-.82s-4.54-.42-4.54 0 2.05 1.04 4.54 1.38 4.97.75 5.5.9c1.98.58 2.38-.75 2.38-7.8m-41.58-1.7c.33-2.04 1.44-4.56 2.47-5.6 1.02-1.04 1.43-1.89.92-1.89-1.69 0-4 4.71-4.41 8.97-.46 4.8.13 3.96 1.02-1.48m11.97-1.12c0-1.3-2.33-5.35-3.3-5.73q-1.15-.45.36 2.83c1.27 2.78 2.94 4.42 2.94 2.9m3.82-1.47c0-.52-.65-.7-1.44-.38-.78.3-1.43.73-1.43.94s.65.38 1.43.38 1.44-.42 1.44-.94M30.65 38.7c-.3-.3-1.07 0-1.72.66-.93.96-.82 1.07.54.55.94-.37 1.47-.91 1.18-1.21"/><path fill="#9f6b08" d="M173.04 393.84c-3.6-.5-6.03-1.7-11.18-5.45-17.62-12.87-32.2-24.8-45.24-37.06-5.01-4.7-16-16-19.87-20.4-15.79-18.04-28.89-36.52-44.93-63.4-3.53-5.92-7.85-14.77-13.73-28.18C18.96 195.79 8.97 151.8 6.02 98.19a468 468 0 0 1-.71-30.3c.04-9.78.09-10.96.55-13.54.89-4.88 2.6-9.5 4.67-12.62 2.57-3.86 9.53-9.42 15.11-12.06 7.88-3.75 27.06-9.54 44.35-13.4 4.7-1.05 13.96-2.94 17.1-3.5.92-.16 2.85-.5 4.3-.77a124 124 0 0 1 4.3-.7c.92-.13 2.43-.39 3.35-.58s2.64-.48 3.83-.63l5.5-.75 4.42-.59c5.77-.7 7.64-.9 11.48-1.32 19.45-2.12 45.3-3.12 63.95-2.47 8.2.28 26.77 1.35 28.24 1.63.41.08 2.24.22 4.07.33s4.82.37 6.66.6l6.58.77c8.33.94 15.56 1.89 18.65 2.43a544 544 0 0 0 6.57 1.08c26.32 4.23 48.1 10.38 64.32 18.18 7.01 3.37 9.81 5.26 13.22 8.93a29.6 29.6 0 0 1 7.58 14.5c1.06 4.81.58 34.83-.85 53.9-1.95 26.01-5.3 47.9-10.87 70.8-6 24.74-14.05 47.4-25.77 72.51-3.96 8.5-5.03 10.58-8.31 16.19-1.77 3-3.27 5.58-3.33 5.72s-.45.74-.84 1.34-.85 1.31-1 1.58l-1.32 2.19c-.56.93-1.07 1.8-1.12 1.94s-.16.3-.25.37c-.08.06-.62.88-1.2 1.82a122 122 0 0 1-1.96 3.08c-.5.76-.92 1.49-.92 1.62s-.08.28-.18.33a9 9 0 0 0-1.5 2.36c0 .12-.16.29-.35.36-.2.08-.36.25-.36.39s-.6 1.12-1.31 2.18a14 14 0 0 0-1.32 2.17c0 .13-.16.3-.36.37s-.36.31-.36.52-.09.37-.2.37c-.1 0-.35.3-.53.67a9 9 0 0 1-.52.91 161 161 0 0 0-3.53 4.98c-1.7 2.47-3.52 5-5.95 8.28-21.52 29.08-44.03 50.9-79.38 77-5.16 3.82-7.58 5.18-10.6 5.96-2.1.54-5.1.77-6.88.52m6.12-2.21c2.98-.77 5.45-2.14 10.18-5.62 45.15-33.33 70.39-60.43 99.15-106.5 7.73-12.38 11.47-18.94 14.55-25.46 8.37-17.75 14.4-32.54 19.35-47.47 12.04-36.29 18.53-74.66 20.17-119.1.38-10.44.31-30.66-.12-33.17-1.17-6.84-5.3-13.35-11.38-17.94-2.2-1.66-10.04-5.7-15.05-7.74-14.84-6.07-31.81-10.62-54.02-14.5a548 548 0 0 0-46.5-5.73l-4.43-.38a803 803 0 0 0-18.77-1.1c-11.51-.55-32.38-.27-46.98.63-38.22 2.34-80.16 10-108.91 19.88-7.91 2.72-10.73 4-14.82 6.7-6.63 4.37-9.66 7.7-11.84 13.03C7.18 53.4 6.72 58.66 7.1 77.5c.5 23.88 1.9 42.5 4.68 62.04 5.5 38.81 15.17 71.57 31.68 107.43 6.42 13.95 8.27 17.32 18.49 33.7a628 628 0 0 0 12.24 18.5c19.25 27.51 37.88 47.39 65.64 70.01 7.21 5.88 24.36 18.9 27.26 20.7 1.05.65 3.81 1.73 5.11 1.99 1.85.38 5 .27 6.96-.24m-6.43-9.82c-1.46-.42-4.78-2.74-11.58-8.08-41.73-32.82-65.3-58.5-88.81-96.83a532 532 0 0 1-10.18-17.4c-2.82-5.07-11.82-24.13-16.31-34.55-15.93-36.94-24.69-75.27-27.37-119.84-.95-15.67-1.09-37.13-.28-41.6.9-4.93 2.5-9.23 4.7-12.57a26.4 26.4 0 0 1 11.02-9c8.63-3.61 28.18-9.25 44.92-12.95a448 448 0 0 1 86.79-10.64c8.4-.24 22.97-.16 25.94.14.53.05 2.57.16 4.54.24 18.88.76 44.23 3.49 62.4 6.71 22.45 3.99 39.54 9.05 54.16 16.03l5.97 2.85c8.1 3.81 11.79 9.7 13.01 20.72.6 5.43-.83 32.25-2.73 51.14-5.4 53.55-16.21 92.66-36.59 132.22-8.22 15.97-21.37 37.8-31.3 51.99-17.06 24.32-33.57 41.32-66.8 68.77l-6.25 5.18a154 154 0 0 1-6.63 5.27c-3.11 2.13-6.15 2.9-8.62 2.2m-61.97-86.98c2.93-1.36 3.9-3.43 4.3-9.17.26-3.81 1-5.26 2.88-5.66l.95-.2-.12-2.3c-.18-3.44-.15-8.54.06-9.29.1-.36 1.29-2.06 2.65-3.77 3.21-4.06 5.13-6.86 5.67-8.3.23-.65.66-2.75.94-4.68.58-3.95.33-3.38 4.65-10.54a117 117 0 0 0 4.27-7.88c1.16-2.4 2.3-4.4 2.84-5l1.39-1.55c.26-.31.58-.56.71-.56.49 0 1.91 1.53 2.44 2.62.54 1.1.56 1.38.56 6.83 0 5.67 0 5.68.56 6.14.31.26.81.47 1.11.47.55 0 .55-.01-.12-.74-.98-1.06-1.2-2.53-1.03-6.65.14-3.24.1-3.67-.38-5.13-.3-.88-.5-1.95-.46-2.39.07-.75.13-.8 1.15-.86 1.22-.1 1.77-.5 2.42-1.8a5.3 5.3 0 0 0 .5-3.04c-.04-.67-.22-.87-1.28-1.46-1.64-.9-2.09-1.59-2.38-3.62-.34-2.34-.07-9.58.43-11.24.44-1.47.64-1.5 2.35-.3 1.67 1.16 6.74 3.36 9.25 4 3.07.79 7.24.88 8.57.19 1.15-.6 5.43-3.93 7.23-5.62a41 41 0 0 1 2.92-2.47c.8-.58 1.86-1.42 2.38-1.86s1.18-.81 1.48-.81c.85 0 3.12.94 3.92 1.62 1.44 1.23.71 2.48-2.79 4.8a23 23 0 0 0-7.08 7.8c-.62 1.25-3.53 10-3.53 10.65 0 1.02.79 3.15 1.57 4.26 2.88 4.07 4.27 6.35 4.56 7.5.18.7.5 1.66.7 2.15.77 1.89-.16 2.94-3.3 3.72-1.22.3-2.82.62-3.57.7l-1.36.17.38.6c.33.51.42.54.6.21.17-.31.7-.38 2.94-.38 2.2 0 2.97-.1 3.99-.5l1.26-.51.6.76c.67.85 4.55 4.9 4.55 4.76 0-.62-1.85-4.9-3.32-7.68a164 164 0 0 1-2.94-5.84c-.6-1.3-1.93-3.47-3.03-4.96a22 22 0 0 1-2.13-3.29c-.34-1.22-.16-3.3.43-4.97.92-2.65 1.65-2.48 1.66.4 0 2.08.27 2.72 2.57 6.07 2.64 3.86 2.82 4.2 4.14 7.5a39 39 0 0 0 4.1 7.73c.8 1.15 2.35 5.35 2.35 6.36 0 .4-.3.93-.8 1.44l-.82.8-.5-.67c-.3-.36-.6-.59-.69-.5-.09.1-.2.88-.26 1.74-.1 1.55-.09 1.58.77 2.35.81.73.86.86.86 2.25 0 1.76.52 2.96 1.6 3.69.43.3 1.86.74 3.4 1.05l2.67.54.94-.76c1.65-1.33 3.57-3.68 3.84-4.69.3-1.16.11-2.17-.53-2.77a5 5 0 0 1-.81-1.08c-.49-.95-.07-1.2 2.07-1.2 1.74 0 1.87-.03 2.42-.7.64-.77 2.26-4.38 3.2-7.15.5-1.41.6-2.2.6-4.05-.01-1.87.1-2.63.61-4.14.85-2.49.86-4.34.03-5.97-.7-1.38-1.21-1.89-3-3.03-1.96-1.24-1.72-2.02.97-3.06q2.3-.89 2.31-1.95c0-.57-.01-.57-2.11-.43s-2.12.14-2.57-.53c-1.32-1.96-2.08-2.24-3.44-1.28-1.48 1.03-4.79 7.13-4.79 8.82 0 .98 1.08 1.97 3.05 2.8 1.02.42 2.1.93 2.4 1.13q1.48.95 1.48 3.41c0 .83.12 1.8.25 2.17s.26 1.37.26 2.23a5.7 5.7 0 0 1-.72 3.1c-.97 1.99-3.97 5.93-4.76 6.23-.86.33-1.74-.37-2.17-1.73-.31-.97-.3-1.14.2-2.29 1.14-2.6 1.27-3.56 1-7.31-.14-1.9-.38-3.76-.54-4.12-.5-1.1-1.28-.77-2.94 1.27-1.56 1.9-2.58 2.71-3.42 2.72-.82 0-1.1-.83-.96-2.78.15-1.97.57-3.29 2.28-7.1 1.3-2.86 3.33-8.27 4.02-10.68.54-1.85.6-6.47.11-8.4a5.5 5.5 0 0 0-1.58-2.67 50 50 0 0 1-6.5-9.25c-1.73-3.32-2.9-6.81-2.27-6.81.32 0 2.98 3.45 4.07 5.29 1.33 2.25 2.02 2.82 3.2 2.66.87-.12.9-.1 1.04.77.46 2.88 1.82 5.7 3.93 8.22a38 38 0 0 0 6.2 5.06c1.37.7 3.61 1.44 6.24 2.08 1.6.38 2.85.49 5.92.5 4.08 0 5.01-.19 5.98-1.18.26-.26 1.1-.7 1.88-.99.77-.28 1.66-.65 1.97-.82.84-.44 1.48-1.43 1.32-2.03-.13-.47-.35-.52-3.17-.66-3.62-.18-6.84-.94-9.31-2.2a42 42 0 0 0-3.32-1.5c-2.81-1.08-4.95-2.82-5.44-4.43-.25-.8.24-1.48 1.18-1.67.46-.08.9-.25.97-.37s.31-.22.54-.22c1.02-.01 1.08-.3.55-2.61-.64-2.76-.65-3.23-.04-3.23.98 0 1.68.61 3.03 2.64a31 31 0 0 0 2.75 3.5c1.2 1.25 1.46 1.4 2.32 1.4.53 0 1.03-.1 1.11-.23s-.08-.67-.35-1.2c-.3-.6-.48-1.45-.48-2.2 0-1.01.12-1.36.74-2.07.69-.8.84-.86 2.12-.86 1.61 0 2.67.6 3.57 2.01.53.83.68.9 1.66.9a3 3 0 0 0 2-.64c.78-.55 1-.6 1.5-.37.32.15.84.68 1.16 1.19a10 10 0 0 0 1.31 1.62c.68.65.82.69 2.01.54.72-.1 1.57-.06 1.92.08 1.08.42 1.2 1 .75 3.42-.38 2.03-.38 2.23 0 3.24a7 7 0 0 0 1.12 1.9c.8.92.82.96 1.19 4.02.34 2.92.05 4.98-1.15 8.18l-1.82 4.82a15 15 0 0 1-1.54 3.14l-.68.83.97.76c1.27.97 2.22 2.62 3.58 6.15 1.93 5.05 2.1 5.67 2.14 7.6.02 1.55-.13 2.3-.98 4.92-1.35 4.14-1.39 5.73-.17 7.35.46.62.83 1.3.83 1.53s-.59 1.4-1.3 2.61c-3 5.02-2.98 7.3.04 10.12 1.58 1.47 2.97 2.24 3.85 2.14.6-.07.65-.17.72-1.42.08-1.5.75-2.5 1.59-2.38.41.06.5.31.65 1.74.2 2.05.3 2.35.86 2.35.99 0 4.31-2.64 4.99-3.96l.36-.72-1.04.73c-.57.4-1.3 1.02-1.61 1.36-.7.76-1.41.81-2.24.15-.84-.67-.99-1.62-.52-3.44.54-2.12.37-3.77-.47-4.51-.55-.48-.9-.56-2.48-.57-1.01 0-2-.1-2.19-.22-.64-.42.1-1.4 1.64-2.2 2.24-1.15 2.36-1.96.43-2.96-1.27-.66-1.59-1.09-1.6-2.18a3.2 3.2 0 0 1 2.14-2.92c1.53-.58 2.16-1.43 2.16-2.93 0-1.67-.57-2.76-2.01-3.87-2.35-1.8-2.3-1.7-2.3-3.87 0-1.58.1-2.05.45-2.4.33-.34.47-.97.57-2.44.09-1.28.31-2.35.64-3.03.79-1.67.7-2.1-.84-4.43-.99-1.5-1.3-3.01-1.3-6.47 0-1.44-.1-2.89-.21-3.21-.31-.83-.03-3.6.38-3.76.7-.27 1.77.49 2.53 1.79.84 1.43 1.02 1.55 1.2.82.2-.78 1.37-.6 4.12.61 6.24 2.77 13.24 3.33 17.01 1.37 2.15-1.11 6.03-4.53 7.02-6.19.93-1.55.87-1.57-2.99-1.44-3.91.14-6.26-.16-8.85-1.1a15.4 15.4 0 0 1-5.99-4.08c-.6-.72-2.2-2.25-3.56-3.4a20 20 0 0 1-2.6-2.44.6.6 0 0 0-.53-.36c-.73 0-3.97-1.53-5.74-2.7a40 40 0 0 0-2.76-1.7c-1.73-.9-8.27-2.24-12.34-2.55l-2.2-.16-.17-.89c-.3-1.62-.78-2.7-2.23-4.99-1.2-1.89-1.45-2.44-1.45-3.34 0-1.28-.53-2.5-2.25-5.3a16 16 0 0 1-1.82-4.03c-.29-1.07-.94-2.9-1.44-4.07a21 21 0 0 1-1.9-6.9 29 29 0 0 0-1.88-7.69 40 40 0 0 1-1.47-5.2c-.75-3.82-1.03-4.53-2.98-7.44a18 18 0 0 1-1.92-3.42c-.1-.45-.47-1.16-.82-1.57s-1.07-1.46-1.58-2.32-1.17-1.93-1.47-2.38a3.4 3.4 0 0 1-.55-1.49c0-1.04.57-1.34 2.37-1.27 3.78.15 6.71 3.04 10.54 10.4 3.04 5.85 5.54 8.87 8.65 10.45 1.22.62 2.01.86 2.82.86 1.43 0 1.95-.53 2.1-2.16.13-1.41-.14-2.7-1.44-6.84a20 20 0 0 1-1.1-5.53c-.18-3-.32-3.2-3.03-4.15-2.33-.82-2.47-1.25-.56-1.74 1.9-.48 3.91.04 6.12 1.58 1.45 1.01 1.73 1.12 2.65 1.01.83-.1 1.29-.36 2.4-1.42 1.26-1.2 1.37-1.38 1.28-2.18a4.5 4.5 0 0 1 1.4-3.26c.7-.65 1.1-1.65 1.93-4.84 1.1-4.25.82-7.8-.87-10.74-1.34-2.34-7.73-7.5-11.44-9.25-3.4-1.6-3.56-1.6-21.9-1.82-20.48-.25-29.59-.7-32.23-1.61-3.82-1.32-6.57-3.7-6.17-5.34.23-.94 1.52-2.23 2.66-2.68 2.13-.83 5.14-.24 10.99 2.15 5.36 2.2 8.6 2.75 14.8 2.54 5.51-.19 9.86-.86 10.98-1.7.41-.3.41-.33 0-.7-.24-.22-2-.8-3.9-1.3-4.18-1.1-6.46-1.97-6.46-2.5 0-.32.41-.35 3.17-.23 3.2.14 6.77.75 9.54 1.64 1.72.54 5.59.67 6.86.22.83-.3.99-.92.38-1.54-1.54-1.56-9.94-4.62-16.4-5.97-4.07-.85-7.23-1.05-14.02-.92-8.36.17-11.81.8-15.8 2.84-3.27 1.68-7.08 5.21-8.29 7.66-1.4 2.88-.45 4.8 3.6 7.26 2.8 1.7 5 2.4 9.68 3.1 8.49 1.23 14.48 1.52 30.96 1.5 8.05 0 14.47.1 15.3.23 2.48.41 5.4 1.47 6.91 2.51a18 18 0 0 1 5.12 6.1c.75 1.5.86 1.94.87 3.53s-.08 2-.67 3.1c-.93 1.69-2.82 3.82-3.76 4.21-1.12.48-3.82 0-7.02-1.23a15 15 0 0 0-5.26-1.2c-2.91-.23-3.24-.32-7.57-2.27-4.42-2-11.15-4.22-14.52-4.8-1.61-.28-3.18.04-5.42 1.09-2.26 1.06-3.56 2.11-8.06 6.5-4.24 4.12-6.16 5.66-8.53 6.81-4.3 2.1-16.59 9.12-17.73 10.14a38 38 0 0 0-5.7 7.02c-2.18 3.74-2.85 6.68-3.1 13.58-.19 4.7-.22 4.94-.96 6.87-.84 2.15-3.05 6.03-6.04 10.57a104 104 0 0 0-6.18 10.4c-2.66 5.35-3.12 7.4-3.35 14.99l-.17 5.6-.86 2.56c-.48 1.41-1.47 4.04-2.21 5.84-2.75 6.67-2.7 6.33-2.95 18.6l-.19 9-1 2.02a38 38 0 0 1-2.05 3.57c-1.32 1.97-1.7 3.55-2.18 9.26l-.5 5.4c-.1.88-.46 1.4-3.12 4.37-5.07 5.66-7 8.61-7 10.65 0 1.01-.08 1.14-1.03 1.8a20 20 0 0 0-5.33 6.22c-1.04 2.21-1.28 4.27-.65 5.5.7 1.38 1.17 1.15 3.14-1.54l1.76-2.39.57.55c.32.3.58.69.58.85s-.44 1.22-.97 2.33a9 9 0 0 0-.9 2.64c.1.81.93.94 5.93.88 3.54-.04 4.07-.1 5.14-.6m-2.22-13.2c-.83-.33-2.06-3.15-1.86-4.25.17-.94.4-1 1.65-.48 1.29.55 1.92.45 3.13-.48 1.17-.92 1.55-1.02 2-.56q.63.64-.22 2.27l-.86 1.65c-.67 1.28-2.75 2.28-3.84 1.85m7.7-22.97c-.53-.54-.58-.79-.58-2.65 0-1.14-.05-2.2-.12-2.39s-.01-.48.12-.69c.2-.3.35-.23.96.43.6.65.92.8 1.73.8.67 0 1.15-.17 1.53-.53.73-.7 1.28-.44 1.26.57a5.8 5.8 0 0 1-2.45 4.42c-1.2.8-1.7.8-2.44.04m76.1-2.18a5 5 0 0 1-1.4-.56c-.41-.42-.8-3.39-.55-4.14.5-1.46 2.31-.78 2.76 1.04.26 1.05.3 1.09 1.19 1.09 1.06 0 1.41.45 1.41 1.78 0 .74-.08.85-.74.98-.99.2-1.31.18-2.68-.19m-71.1-20.2c-1-.45-1.36-1.64-1.24-4.17.11-2.33 1.05-4.5 2.32-5.38l.8-.54.6.72c.35.44.82.72 1.17.72.88 0 2.7-1.05 4.04-2.33.66-.63 1.8-1.69 2.55-2.35 1.7-1.5 2.11-2.5 2.1-5-.02-3.23-.24-3.9-1.76-5.29s-2.12-2.62-2.12-4.4c0-2.09 1-3.26 2.8-3.26.98 0 1.67.67 2.91 2.83 2.05 3.57 5.05 4.96 7.02 3.24.94-.82 1.25-.88 1.78-.34.31.32.38 1.03.38 3.88 0 1.92.1 3.76.22 4.08q.21.59 1.56 1.15c1.63.67 2.16 1.5 1.98 3.1a2.74 2.74 0 0 1-2.12 2.5c-1.34.38-2.33.02-6.42-2.3-1.24-.71-2.62-.8-3.48-.23-.32.21-1.13 1.14-1.8 2.06a12 12 0 0 1-3.6 3.3c-2.6 1.77-3.34 2.53-4.86 4.94-1.09 1.72-2.38 3.18-2.84 3.18-.15 0-.5.06-.76.12s-.82-.04-1.24-.23zm38.41-51.5c-.85-.4-2.09-.85-2.75-1-1.53-.33-2.41-.79-2.87-1.5-.33-.51-.33-.72.01-2.06.43-1.72.21-3.06-.63-3.84-.43-.39-.84-.45-2.57-.42-1.19.02-2.51.2-3.11.43l-1.1.38c-.12 0 .16-2.3.38-3.2.15-.64.47-1.06 1.06-1.43 1.43-.9 1.63-1.42 1.47-3.86q-.28-4.39 1.11-4.4c.12 0 .61.4 1.1.91a6 6 0 0 1 1.44 2.61c.93 2.9 1.33 3.53 2.22 3.54 1.43 0 1.5.15 1.5 3.57 0 3.75.22 4.33 2.71 6.83 3.83 3.85 3.84 5.23.03 3.44m38.88-19.55a14 14 0 0 1 0-2.8l.16-2.15-.68-.45c-.6-.4-1.21-.46-5.6-.46-4.28-.01-5.03-.07-5.86-.47l-.96-.45.72-.18c.4-.1 1.74-.19 2.99-.2 2.62-.04 3.65-.28 4.76-1.11 3.11-2.34 2.48-5.23-2.15-9.89-2.88-2.9-3.39-3.7-3.28-5.17l.07-1.02 1.2 1.23c.65.68 1.57 1.88 2.02 2.68a99 99 0 0 0 7.3 10.16c2.39 2.66 3.28 4.97 2.89 7.5-.2 1.35-1.61 3.07-2.68 3.28-.66.12-.76.07-.9-.5m-5.2-38.52a16 16 0 0 1-1.16-1.49 31 31 0 0 0-1.68-2.13c-1.37-1.59-1.56-2.15-.93-2.79s3.34-.66 4.52-.01c1.21.65 2.13 2.59 2.32 4.87l.14 1.79-.72-.17c-.54-.12-.76-.06-.87.22-.21.58-.95.45-1.62-.3m-7.02-34.3c-.26-.07-.98-.34-1.6-.6-1.37-.6-1.7-1.3-.91-1.95.7-.57 1.23-.56 2.45.07a8 8 0 0 0 2.44.64c1 .08 1.72.3 2.34.73.99.68 1.1.91.52 1.13-.43.17-4.53.15-5.24-.02m-49.23 190.15q2.48-1.3 4.51-5.3c.67-1.32 1.6-2.7 2.3-3.41 1.4-1.44 1.69-1.99 2.35-4.44.62-2.31 1.67-4.48 3.59-7.4 2.17-3.3 3.14-4.24 6-5.8 4.5-2.46 4.77-2.8 5.05-6.22.11-1.34.36-2.74.56-3.12.44-.88 2.7-2.96 4.52-4.19l1.42-.94h-6.63c-5.14 0-6.99.09-8.26.38-.9.21-2.16.35-2.8.3l-1.16-.07-1.49 3.77a36 36 0 0 0-1.49 4.24c0 .81-.76 3.63-1.2 4.52-.63 1.24-4.69 5.54-5.76 6.1-.5.26-1.23.47-1.61.47-.84 0-1.79.71-2.18 1.64a8 8 0 0 1-1.98 1.9c-2.14 1.54-4.79 4.02-5.46 5.12-.79 1.3-1.18 3.17-1.18 5.72 0 2.6.5 4.85 1.1 4.85.19 0 1.12-.55 2.05-1.22q4.12-2.93 1.63 1.22a9 9 0 0 0-.96 1.86c0 .47 1.7.8 3.83.72 1.64-.05 2.27-.19 3.25-.7m2.34-13.27c-1.53-1.15-2.96-2.61-2.96-3.05 0-.25.57-.7 1.46-1.15l1.46-.75.97.65c1.32.9 2.4 1 3.96.4 1.74-.68 1.93-.56 1.67 1a9 9 0 0 1-.5 1.85c-.38.77-1.92 1.45-3.68 1.63-1.28.13-1.47.09-2.37-.58zm25.13.43c.54-.14.28-.19-1.03-.21-1.53-.02-1.74-.08-1.67-.45.04-.24.63-.7 1.31-1.04.69-.33 1.33-.7 1.44-.81s.2-1.07.2-2.12c0-2.3.32-2.78 2.13-3.13 1.25-.23 1.8-.74 1.8-1.64 0-.42-.25-.66-1.05-1.02-1.32-.6-1.77-1.32-1.16-1.86l2.4-2.11c1.75-1.54 2.01-1.88 2.3-2.98.62-2.4 1.12-5.43.96-5.89-.23-.65-1.07-1.56-1.45-1.56-.18 0-.53-.22-.8-.48q-.47-.5-.47-.16c0 .18-.72 1.52-1.6 2.98a67 67 0 0 0-2.54 4.68c-.86 1.8-1.12 2.13-2.42 3.03a13.4 13.4 0 0 0-6.1 9.98c-.26 2-.1 3.33.4 3.33.19 0 .91-.49 1.6-1.1a5 5 0 0 1 1.68-1.09c.37 0 .4.18.25 1.66l-.16 1.67.8.26a6 6 0 0 0 3.18.06m74.66-83.85c.45-.35 1.3-1.3 1.88-2.1l1.06-1.47-.6-.75a41 41 0 0 1-5.03-7.57 19 19 0 0 1-1.31-3.05q.02-.89 2.18-2.27c3.24-2.09 3.6-2.96 3.74-9.27.06-2.96 0-5.13-.18-6.08a13 13 0 0 0-2.98-5.9l-1.25-1.4-.94.29c-1.14.35-2.89 2.03-3.48 3.34-.62 1.4-.55 3.03.3 6.34.5 1.98.73 3.5.73 4.75 0 2.2-.09 2.77-1.11 7.04-1.04 4.32-1.35 6.69-1.34 10.29 0 3.2.32 4.75 1.24 6.12 1.58 2.35 5.14 3.2 7.09 1.69M37.48 93.69c2.2-1.19 8.03-3.69 12.85-5.51l4.12-1.56v-3.35c0-1.88-.1-3.34-.22-3.34-.3 0-7.31 2.9-9.67 3.99-1.04.48-1.98.87-2.1.87-.11 0-.2-7.5-.2-17.15 0-9.44-.08-17.16-.18-17.16s-1.75.74-3.68 1.64l-3.5 1.65-.1 20.2c-.05 11.1-.06 20.27-.01 20.37.19.4 1.22.15 2.7-.65m277.39-8.6c-.04-4.77-.15-13.98-.24-20.44l-.16-11.76-3.11-1.32a20 20 0 0 0-3.77-1.33h-.66v40.58l1.02.27c.56.15 2.25.81 3.77 1.47s2.85 1.2 2.98 1.22c.16.01.22-2.98.17-8.68zm-13.23-25.87.03-11.34-2.69-.9a44 44 0 0 1-3.1-1.13 3 3 0 0 0-1.14-.23h-.72L294 55.9a734 734 0 0 0 0 10.58c.18 1.36-1-1.3-5.24-11.77-3.66-9.05-5-12.12-5.37-12.28-.9-.39-5.35-1.44-6.09-1.44h-.73v40.88h.61c.5 0 5.17 1.1 6.86 1.61.4.12.42-.52.27-12.36-.1-8.63-.07-12.41.1-12.24.13.13 2.77 6.48 5.86 14.1l5.62 13.87 2.71.86 2.72.87.14-9.01a1933 1933 0 0 0 .18-20.35M57.72 85.65c.39-.2 1.77-.7 3.07-1.1s2.37-.76 2.4-.8c.01-.03.55-2.65 1.18-5.83l1.16-5.78 1.1-.33c3.77-1.14 6.28-1.68 6.45-1.41.1.16.64 2.4 1.21 4.97s1.11 4.76 1.2 4.86 1.7-.18 3.6-.63c2.84-.68 3.44-.9 3.38-1.23-.04-.22-.93-3.39-1.99-7.03L75.1 52.68a564 564 0 0 0-3.57-12.15c-.05-.05-1.2.19-2.55.54s-2.72.67-3.04.71c-.58.06-.65.33-3.5 13.33L57.6 76.97c-1.88 8.52-1.9 8.6-1.4 8.8.7.29.7.29 1.5-.12m8.93-18.81c0-.39 2.39-12.32 2.54-12.7.18-.44.47.66 1.87 6.87l1.02 4.56-.98.26c-1.03.27-3.32.9-4.03 1.11-.23.07-.42.02-.42-.1m204.74-7.03.15-20.24-1.37-.28-3.88-.84c-1.38-.3-2.7-.55-2.93-.55-.4.01-.42.9-.48 14.63-.06 14.17.02 25.98.18 26.14.18.19 7.9 1.65 8.04 1.52.08-.08.21-9.25.3-20.38M89.5 77.37l3.13-.6c.04 0 .1-4.63.13-10.28.05-7.67.13-10.13.32-9.68.15.34 1.75 4.7 3.57 9.68s3.42 9.06 3.56 9.06c.78-.02.7.2 5.69-17.03.68-2.35 1.32-4.37 1.43-4.5s.2 4.4.2 10.05c0 5.64.08 10.26.18 10.26.28 0 5.6-.7 6.4-.85l.74-.13-.08-19.64a910 910 0 0 0-.21-20.46c-.12-.76-.18-.8-.9-.68-2.04.35-5.47.69-6.01.58-.34-.06-.66-.04-.71.04a2347 2347 0 0 0-6.85 22.12c-.15.44-.3.76-.37.7-.05-.06-1.6-4.53-3.44-9.93l-3.44-10.1c-.07-.18-.97-.1-2.93.3a34 34 0 0 1-3.56.57l-.74.01-.16 7.7c-.09 4.25-.16 13.44-.16 20.43 0 13.6-.06 12.78 1 12.97.08.01 1.53-.25 3.21-.58m168.12-20.15.06-20.35-.54-.12a64 64 0 0 0-6.52-1.1h-.78l.13 7.9c.13 7.66.12 7.9-.32 7.9-.25 0-2.23-.26-4.4-.6s-4.03-.6-4.13-.6-.18-3.62-.18-8.03V34.2l-.53-.11a90 90 0 0 0-6.7-.87h-.66V74l3.77.5c2.07.27 3.83.46 3.91.42s.1-4.27.03-9.38l-.12-9.29.57.14c.31.08 2.32.38 4.46.68l3.88.55v18.9l.78.02c.43 0 2.12.26 3.76.57 1.65.31 3.1.54 3.23.52.16-.03.26-7.08.3-20.4M220.7 73.24q5.43-1.43 7.12-6.97c.4-1.3.45-2.3.45-8.26v-6.8h-11v1.19c0 .64-.07 2.01-.15 3.04l-.16 1.86h4.66l-.08 3.24c-.08 3.03-.12 3.3-.72 4.22-1.77 2.72-5.42 2.24-7.55-.99-1.55-2.34-1.62-2.88-1.62-13.16 0-9.05.02-9.27.53-10.24.63-1.22 2-2.48 2.89-2.68.36-.08.78-.18.93-.23.56-.17 2.03.42 2.85 1.15a6 6 0 0 1 1.93 3.72l.15 1.1h3.55c4.06 0 3.77.22 3.2-2.46a11.2 11.2 0 0 0-11.2-9.22c-5.51 0-10.04 3.5-11.68 9.03-.24.81-.32 3.4-.31 10.68 0 10.62.13 11.89 1.55 14.77.9 1.85 2.87 4.06 4.61 5.2 1.3.86 3.54 1.76 4.95 2 1.39.24 3.82.15 5.1-.2zm-90.46-1.33c8.2-.7 8.73-.85 10.8-3.11 3.82-4.16 4.36-12.77 1-16.22-.75-.77-2.32-1.6-3.07-1.6q-.46-.02.56-.53c3.61-1.82 4.68-9.41 2.1-14.93a8.7 8.7 0 0 0-4.18-4.45l-1.34-.63-3.95.3c-4.04.3-11.8 1.03-11.9 1.11-.02.03-.12 9.23-.21 20.45l-.17 20.4 2.25-.14c1.24-.09 4.9-.38 8.11-.65m-3.17-5.75c-.1-.1-.18-2.72-.18-5.82v-5.65l3.53-.14 3.53-.13.79.77a9 9 0 0 1 1.43 2.1c.56 1.16.65 1.65.65 3.54 0 1.95-.07 2.3-.67 3.34-1.01 1.76-1.62 1.98-5.55 2.09-1.84.04-3.43 0-3.53-.1m1.2-17.8-1.38-.09.06-5.28.06-5.28 3.26-.07 3.26-.06 1.1 1.25c2.6 2.94 2.31 7.7-.55 9.16-1.1.56-1.95.61-5.81.37m34.56 22.7c4.99-1.08 8.42-4.67 9-9.42.12-.98.2-6.17.17-11.52-.07-10.73-.1-11.08-1.67-14.11a14.5 14.5 0 0 0-4.84-5.05 14 14 0 0 0-5.55-1.58c-4.18-.29-8.76 2.86-11.07 7.6-1.64 3.37-1.72 4.22-1.53 15.33.19 10.43.28 11.3 1.5 13.57 2.2 4.14 8.32 6.4 13.99 5.17m-5.12-6.31a5.4 5.4 0 0 1-2.97-2.45l-.6-1.06-.06-10.18-.05-10.19.66-1.36c1.67-3.46 5.64-4.09 8.51-1.35a6.7 6.7 0 0 1 1.96 4.15c.1.82.23 5.32.27 10 .07 8.46.07 8.53-.47 9.65-1.22 2.53-4.5 3.79-7.25 2.79m43.06 6.11c0-.17-1.56-4.27-3.46-9.12s-3.47-8.92-3.47-9.04.4-.29.89-.38c3.54-.68 5.56-4.2 5.56-9.74 0-5.25-2.16-10.02-5.43-11.97-1.22-.73-3.17-.91-12.44-1.17l-5.8-.16v40.86l.78.12c.43.07 2.1.14 3.72.16l2.94.04-.04-8.71-.03-8.71 2-.07 2.01-.07 2.14 7 2.76 8.96.62 1.94 2.6.07c1.45.04 2.78.1 2.98.15.86.2 1.68.13 1.68-.16M183.97 47.4c-.09-.1-.16-2.65-.16-5.7v-5.5l2.95-.17c3.26-.2 4.2.02 5.48 1.26 2.07 2.03 1.96 7.61-.2 9.55l-.83.74h-3.54c-1.95 0-3.61-.08-3.7-.17"/><path fill="#5c4b21" d="M168.88 379.4c-8-4.95-27.91-21.16-41.29-33.59-21.96-20.4-43.98-47.74-58.98-73.22-32-54.35-48.63-117.73-50.59-192.83-.57-21.93-.53-22.62 1.55-27 2.76-5.8 5.24-7.51 18.37-12.65 36.24-14.17 74.5-20.72 126.91-21.74 59.17-1.15 108.08 5.99 147.45 21.52 13.65 5.38 16.07 7.04 18.85 12.87 2.09 4.4 2.12 5.05 1.54 27.49-3.2 123.33-45.51 214.8-131.84 285.04-10.47 8.52-21.4 16.29-24.11 17.15-1.35.43-3.82-.53-7.86-3.03m-58.02-84.12c1.5-.7 2.6-2.48 3.4-5.53.66-2.48 1.87-5.3 2.69-6.27.9-1.07 1.64-4.3 1.88-8.22.36-5.71.83-7 4.07-11.18 2.1-2.69 4.33-7.1 5.22-10.27a58 58 0 0 1 3.04-8.48c6.13-12.01 10.09-18.98 10.79-18.98 2.1 0 3.8 4.62 3.8 10.4 0 4.54.38 6.27 1.53 6.93 1.37.78 1.38 1.17.13 3.7a32 32 0 0 0-2.07 5.68c-.93 3.92-3.99 8.08-7.18 9.76-1.46.77-4.65 3.38-7.1 5.8-3.5 3.47-4.42 5.04-4.4 7.58.01 4.29 1.39 6.53 3 4.9 1.92-1.97 2.79-1.4 2.1 1.37-.6 2.5-.52 2.56 2.57 1.93 3.95-.8 7.53-3.12 8.19-5.3.27-.9.87-2.3 1.34-3.1s2.23-4.46 3.93-8.12c2.12-4.56 4.44-7.78 7.36-10.22 2.34-1.96 4.89-5.08 5.65-6.94 2.26-5.5 8.83-10.2 8.83-6.32 0 2.28-3.7 9.17-6.4 11.92-3.4 3.46-6.01 8.1-6.02 10.67 0 2.26 1.34 2.94 2.39 1.22 1.04-1.72 2.22-1.04 1.7.97-.41 1.64-.02 1.95 2.45 1.95 4.91 0 9.53-2.82 10.24-6.24a24 24 0 0 1 2.46-6.1c1.21-2.02 1.64-3.94 1.24-5.55-.64-2.62 1.11-9.36 2.44-9.36.98 0 4.44 7.25 5.33 11.19.36 1.6 1.5 3.87 2.53 5.03 1.75 1.96 2.51 2.07 11.1 1.58 8.9-.51 9.32-.64 11.62-3.53 1.73-2.18 2.53-4.62 2.93-8.88.68-7.51 3.92-12.62 11.36-17.94l5.57-3.98 1.37 2.18c.75 1.2 2.38 4.7 3.62 7.78 2.07 5.15 2.16 6 1.04 10.42-.66 2.65-.92 5.74-.57 6.86s-.12 4.16-1.06 6.84l-1.7 4.8 2.26 2.45c2.57 2.78 4.34 3.12 5.14.99.73-1.93 2.52-1.88 2.52.08 0 2.07 1.88 1.3 4.04-1.64 1.65-2.25 1.66-2.67.25-6.75-.83-2.39-1.32-5.1-1.09-6.02.24-.93 0-3.55-.52-5.84-1.19-5.23-1.12-11.36.19-17.8.92-4.52.8-5.5-1.36-10.24-1.31-2.88-2.2-5.42-1.99-5.65.22-.22 2.03.25 4.02 1.05 9.27 3.7 16.5 2.86 20.9-2.44l2.6-3.15-5.64-.49c-6.4-.56-6.7-.7-13.47-6.74-4.77-4.25-4.94-4.59-4.43-8.4.3-2.24-.17-7.17-1.09-11.38-1.5-6.85-1.5-7.84-.1-12.74.83-2.93 1.51-6.6 1.51-8.18 0-4.7-2.57-11.96-5.6-15.8a25 25 0 0 1-3.87-7.51 30 30 0 0 0-3.39-7.44c-2.2-3.32-2.26-3.72-.95-6.92.77-1.86 1.4-5.8 1.4-8.74 0-4.65-.41-5.82-3.11-8.95-5.86-6.8-8.6-7.41-36.54-8.26-32.27-.97-37.35-2.2-32.34-7.84 2.05-2.31 5.4-2.25 12.36.22 7.6 2.7 16.92 3.37 22.36 1.61 4.68-1.5 4.77-1.43-3.34-3.14-1.31-.28-2.39-1-2.39-1.59q-.02-1.09 4.54-.47c12.49 1.7 14.57 1.82 14.57.87 0-1.58-8.4-4.82-17.14-6.63-14.08-2.9-27.64-.5-34.06 6.04-3.95 4.02-4.4 8.3-1.1 10.48 4.13 2.75 10.93 3.59 35.23 4.36 22.21.71 24.88.98 28.74 2.88 4.75 2.34 6.81 5.4 6.69 9.91-.1 3.75-2.57 7.74-4.77 7.74-3.73 0-16.07-3.15-24.81-6.33-5.13-1.87-10.18-3.4-11.23-3.4-2.38.01-5.16 1.87-13.42 8.98a93 93 0 0 1-14.09 9.6c-13.54 7.18-17.73 12.89-19.6 26.78-1.03 7.52-2.3 10.53-8.12 19.3-4.83 7.27-8.26 17.05-8.29 23.67 0 3.19-1.13 8.3-2.98 13.62-2.45 7.04-3 10.2-3.18 18.25-.18 8.34-.56 10.38-2.65 14.27-1.5 2.8-2.69 7-3.1 10.96-.62 5.86-1.1 6.92-5.37 12-2.58 3.08-4.7 6.12-4.7 6.77s-1.3 2.7-2.9 4.53c-3.64 4.23-5.42 9.08-3.9 10.63.8.82 1.45.55 2.55-1.05 2.1-3.05 3.3-2.68 2.34.72-.55 1.95-.45 3.02.31 3.36 1.44.64 6.87-.22 9.7-1.54m73.12-204.17c-2.68-1.73-.12-2.18 3.98-.7l4.12 1.48-3.35.06c-1.83.04-3.97-.34-4.75-.84m-137.83-1.2c7.4-2.75 7.88-3.1 7.88-5.75 0-1.56-.15-2.83-.33-2.83s-2.83.88-5.88 1.95a98 98 0 0 1-5.88 1.94c-.18 0-.33-7.66-.33-17.03s-.15-17.03-.34-17.03c-.18 0-1.69.48-3.34 1.07l-3 1.07v20.44c0 19.09.1 20.4 1.66 19.78.92-.38 5.22-2 9.56-3.6M315.8 73.65V53.31l-3.01-1.07c-1.66-.59-3.16-1.07-3.34-1.07s-.34 9.13-.34 20.3v20.3l3.1 1.01 3.35 1.12c.13.05.24-9.06.24-20.25m-14.55-5.62-.26-20.13-2.63-.71-2.62-.72-.02 10.87c-.02 12.45-.11 12.41-5.83-2.28-4.2-10.76-5.56-12.65-9.15-12.65h-2.2v19.95c0 15.3.28 19.96 1.2 19.97.65 0 2.14.27 3.3.59 2.1.57 2.13.44 2.4-11.27l.26-11.86 5.23 13.28c2.87 7.3 5.88 13.67 6.69 14.15 3.8 2.27 3.9 1.72 3.63-19.2M62.75 84.64c.34-.2.9-2.76 1.26-5.7.74-6.01.68-5.93 5.43-6.84l3.46-.66 1.16 4.9c1.13 4.82 1.21 4.9 4.18 4.33 1.66-.32 3.19-.73 3.4-.92.48-.42-8.58-36.62-9.37-37.45-.31-.33-1.89-.23-3.5.23-2.9.8-2.95.94-6.49 16.65a4572 4572 0 0 1-4.88 21.49l-1.32 5.66 3.03-.66c1.67-.37 3.31-.83 3.64-1.03M66.9 64.9c.32-1 .91-3.75 1.32-6.08l.74-4.23 1.26 5.22c1.06 4.39 1.05 5.35-.06 6.06-2.3 1.49-3.88 1.02-3.26-.96zm204.96-4.42c0-10.94-.32-20.08-.72-20.3s-1.9-.7-3.34-1.05l-2.63-.64v40.79l2.63.4c1.45.22 2.95.47 3.34.55.4.08.72-8.8.72-19.75M91.45 77.93c.93-.37 1.19-2.27.96-7.09-.17-3.62-.17-8.33 0-10.45.29-3.58.58-3.05 4.03 7.25l3.71 11.12 3.45-12.47 3.45-12.47.27 10.93c.23 9.4.48 10.85 1.75 10.36.81-.32 2.3-.58 3.31-.58 1.75 0 1.84-.94 1.84-20.24V34.04l-3.27.4c-3.19.37-3.3.55-5.78 8.8a947 947 0 0 1-3.77 12.31l-1.25 3.9-3.11-10.23c-1.71-5.62-3.45-10.59-3.86-11.04-.41-.46-2.08-.53-3.7-.17l-2.97.66v19.88c0 18.94.09 19.87 1.83 19.87 1.01 0 2.4-.22 3.1-.5M257.3 57.25l-.26-20.2-2.62-.3-2.63-.3v15.71l-4.06-.57c-6.66-.95-6.45-.65-6.45-9.15 0-5.6-.34-7.82-1.2-7.83-.65 0-2.16-.28-3.34-.6l-2.15-.59v40.9l3.35.39 3.34.4v-9.05c0-10.03-.31-9.65 6.93-8.43l3.58.6v9.05c0 7.8.23 9.11 1.67 9.5 4.21 1.12 4.11 1.64 3.84-19.53M137.06 71.27c3.92-1.91 6.15-5.94 6.22-11.29.06-3.74-.4-5.34-1.99-6.96-2.04-2.09-2.04-2.12-.24-5.14a11.1 11.1 0 0 0 .39-11.32c-1.8-3.55-6.41-4.84-14.33-4l-5.73.6-.26 20.3-.25 20.3 6.94-.69c3.82-.37 7.98-1.18 9.25-1.8m-9.47-10.2c0-5.06.25-5.85 2.01-6.32 5.35-1.42 9.23 3.97 6.47 9-1.02 1.87-2.28 2.58-4.93 2.8l-3.55.31zm0-17.22v-5.33h3.15c3.82 0 5.45 1.47 5.45 4.94 0 3.1-1.3 4.3-5.5 5.11l-3.1.6zm97.11 27.27c2.53-1.7 4.15-6.9 4.15-13.41.01-5.12-.07-5.19-6.92-5.86l-4.54-.44v3.29c0 2.85.32 3.28 2.4 3.28 1.92 0 2.38.48 2.38 2.5 0 5.77-4.55 8.33-7.96 4.5-4.69-5.28-3.64-25.36 1.4-26.99 2.1-.68 5.6 1.87 5.6 4.09 0 .84 1.19 1.3 3.35 1.3 3.8 0 4.22-1.29 1.92-5.82-2.02-3.98-5.08-5.85-9.56-5.85-8.2 0-11.92 6.23-11.88 19.95.02 9.07 1.38 14.8 4.3 18.08 3.38 3.8 10.74 4.46 15.36 1.38m-59.1-1.04c1.18-.83 3.08-3.35 4.22-5.6 3-5.85 3.06-20.56.11-27.11-2-4.47-5.9-7.61-9.43-7.61-3.34 0-7.84 3.13-9.92 6.9-4.44 8.05-3.57 25.87 1.57 32.09 2 2.41 3.06 2.86 6.84 2.86 2.52 0 5.41-.67 6.62-1.53m-9.09-6.94c-1.23-1.92-1.77-5.02-1.98-11.44-.24-7.53 0-9.27 1.7-12.03 2.47-4.03 5.57-3.9 7.66.3 2.15 4.37 1.98 19.68-.26 23.16-2.16 3.36-4.96 3.36-7.12 0m27.45-.6c0-8.22.08-8.57 2.04-8.27 1.63.24 2.65 2.04 5 8.82l2.95 8.52h7.14l-3.14-9.18-3.14-9.17 2.57-2.47c3.13-3 4.1-7.4 2.77-12.45-1.5-5.63-5.23-7.6-14.48-7.6h-7.37l-.28 20.03c-.15 11.02-.2 20.1-.11 20.2.08.08 1.48.15 3.1.15h2.95zm.71-14.85c-.39-.4-.71-3.13-.71-6.06V36.3l4.02.55c5.72.78 8.15 4.81 5.29 8.8-1.29 1.79-7.42 3.24-8.6 2.03M5.45 74.53c0-1.34.22-1.89.49-1.22s.26 1.77 0 2.44-.48.12-.48-1.22zm.14-8.76c0-2.94.18-4.15.4-2.68s.22 3.88 0 5.35c-.22 1.48-.4.27-.4-2.67"/><path fill="#282928" d="M166.15 374.67c-23.48-17.08-52.79-44.83-69.26-65.59-49.75-62.7-73.3-133.28-76.84-230.17-.94-25.76.36-28.92 14.35-34.88 36.58-15.6 83.61-23.4 140.96-23.38 43.22.02 73.4 3.42 106.52 12.01 15 3.9 36.02 11.32 41.33 14.62 3.97 2.45 6.68 7 7.53 12.62.84 5.59-1.07 45.02-3.02 62.32-10.07 89.38-42.3 158.56-100.82 216.42-18.8 18.58-47.27 41.49-51.57 41.49-.92 0-5.06-2.46-9.18-5.46m-55.1-79.17c2.26-1.4 3.24-2.87 3.73-5.6a17 17 0 0 1 2.44-6.01c1.3-1.7 1.77-3.96 1.77-8.41 0-5.68.26-6.4 3.85-10.82 2.64-3.24 4.57-7.09 6.13-12.24 1.25-4.13 3.11-8.73 4.15-10.22a91 91 0 0 0 4.87-8.79c1.65-3.34 3.37-6.08 3.83-6.08 2.03 0 3.36 3.4 3.16 8.07-.25 5.97.42 8.47 2.29 8.47 1.2 0 1.2.4-.07 2.87-.8 1.58-1.46 3.42-1.46 4.08 0 2.97-4.22 9.7-7.32 11.65a42 42 0 0 0-5.5 4.17 83 83 0 0 1-4.2 3.75c-1.94 1.58-2.58 4.3-2.11 9 .28 2.82 1.7 4.04 3.08 2.64 1.8-1.84 2.85-1.37 1.72.77-.92 1.77-.72 1.95 2.12 1.95 3.6 0 9.35-3.21 9.35-5.21 0-1.35 6.76-15.06 9.12-18.5.68-1 2.57-2.64 4.2-3.65 1.62-1 3.67-3.47 4.56-5.48 2.15-4.85 4.98-8.04 7.12-8.04.96 0 1.75.23 1.75.52 0 1.64-5.88 11.98-7.08 12.45-1.79.7-6.58 10.12-5.8 11.4.75 1.24 3.32 1.2 3.32-.04 0-.53.42-.97.93-.97s.66.7.34 1.56c-.84 2.22 1.26 3.18 5.06 2.3 4.97-1.13 8-3.54 8-6.35 0-1.35.92-3.72 2.05-5.27 1.56-2.16 1.91-3.65 1.48-6.35-.55-3.47.8-8.27 2.33-8.27 1.1 0 3.3 4.6 4.64 9.73 1.87 7.16 2.6 7.57 13.5 7.57 7.23 0 9.83-.34 10.7-1.42a98 98 0 0 1 2.97-3.47c1.31-1.46 1.88-3.64 1.99-7.62.13-4.65.69-6.34 3.41-10.2 4.09-5.79 12.05-11.63 13.82-10.13.67.57 2.37 3.95 3.77 7.5 2.3 5.87 2.43 6.86 1.4 10.63-.63 2.3-.92 5.38-.64 6.87s-.1 4.18-.84 5.98c-1.9 4.64-1.69 6.68 1 9.42 2.9 2.96 4.17 3 5.23.2l.84-2.2.9 2.4.9 2.38 2.53-2.59c2.86-2.91 3.17-5.41 1.16-9.38-.76-1.5-1.14-3.69-.84-4.86s0-4.77-.67-8c-.99-4.76-1-7.37 0-13.85 1.15-7.56 1.11-8.18-.81-11.84-3.07-5.84-2.71-6.4 2.75-4.28 8.27 3.2 16.97 1.87 20.4-3.13 2.41-3.5 2.01-4.8-1.26-4.13-5.08 1.04-9.13-.47-14.77-5.5l-5.42-4.84-.5-8.52c-.5-8.95-.53-14.15-.13-28.32.24-8.57.23-8.62-3.54-14.35-2.09-3.17-4.5-7.85-5.36-10.42-.87-2.56-2.53-5.69-3.7-6.95-2.02-2.2-2.04-2.45-.6-5.3 4.56-8.98 1.84-17.84-7.02-22.86l-5.17-2.93-24.44-.78c-31-.98-36.85-2.12-34.43-6.73 1.59-3.02 4.98-3.14 13.27-.48 8.4 2.71 17.64 3.3 22.84 1.45 3.5-1.25 3.12-2.83-.68-2.83a8.3 8.3 0 0 1-4.49-1.5c-1.73-1.42-1.6-1.49 1.97-1 11.7 1.6 15.77 1.76 15.77.65 0-.62-1.83-1.93-4.07-2.9-13.82-5.99-31.35-6.64-41.38-1.54-5.1 2.6-9.97 7.66-9.97 10.37 0 1.8 4.66 5.53 8.24 6.6 2.04.62 14.88 1.55 28.55 2.07 26.81 1.02 31.31 1.85 34.86 6.44a9.3 9.3 0 0 1-.26 11.5l-2.17 2.57-7.44-1.56a140 140 0 0 1-15.74-4.6c-14.31-5.23-14.38-5.21-25.73 4.44-3.83 3.26-11.34 8.37-16.69 11.34-13.6 7.58-16.35 11.94-18.45 29.34-.4 3.26-1.96 6.77-5.43 12.17-7.32 11.39-9.39 16.65-10.35 26.33a82 82 0 0 1-3.73 16.78c-2.4 6.88-2.9 9.76-2.9 17.15-.01 7.56-.36 9.51-2.33 13.14a31 31 0 0 0-2.92 9.12c-1.02 8.25-1.35 9.07-5.68 14.03-2.31 2.65-4.51 5.84-4.9 7.08-.37 1.24-1.91 3.68-3.4 5.43-3.05 3.55-4.25 7.15-3.27 9.72.58 1.49.96 1.33 3.06-1.22l2.4-2.92-.6 3.65-.61 3.65h4.1c2.38 0 5.39-.8 7.16-1.9M184.4 91c-1-1.63-.22-1.7 3.38-.36l3.34 1.26-3.05.07c-1.67.04-3.33-.39-3.67-.96M38.13 174.54c-4.48-23.37-7.42-49.88-8.9-80.05-1.55-31.74-1.59-32.1-3.37-34.88-.92-1.43-2.05-2.6-2.51-2.6-2.77 0 .84 55.22 5.47 83.7 2.65 16.34 8.6 40.89 9.92 40.89.4 0 .13-3.18-.61-7.06m16.85-90.51c0-2.01-.15-3.65-.33-3.65s-2.83.88-5.89 1.95-5.78 1.72-6.05 1.44-.68-7.72-.92-16.54-.78-16.05-1.2-16.05-1.87.43-3.22.95l-2.45.95v41.8l10.03-3.6 10.03-3.6zM315.1 53c-.4-.4-1.92-1.03-3.36-1.4l-2.63-.65v41.08l3.1 1.3 3.1 1.28.27-20.44c.14-11.24-.08-20.77-.48-21.17m-12.68 15.74c0-11.21-.32-20.58-.71-20.82s-2.16-.74-3.92-1.13l-3.2-.7.34 9.84c.18 5.4.11 9.83-.15 9.82s-2.31-4.7-4.55-10.46c-4.99-12.8-4.78-12.5-8.59-13.33l-3.1-.69v20.46c0 11.25.32 20.64.71 20.87.4.22 1.9.7 3.35 1.05l2.63.64V72.9c0-6.28.35-11 .8-10.49.43.51 2.87 6.33 5.41 12.94 4.5 11.7 5.8 13.5 9.79 13.72.92.04 1.2-4.64 1.2-20.32M60.54 86.12c2.66-.94 3.1-1.66 4.07-6.7 1-5.18 1.34-5.72 3.97-6.25 4.32-.88 4.34-.87 5 3.08.93 5.66 1.5 6.17 5.57 5.02 1.94-.55 3.54-1.23 3.54-1.51s-1.66-6.72-3.7-14.31c-2.03-7.59-4.26-16.1-4.96-18.94-1.25-5.03-1.34-5.13-4.2-4.52-1.6.34-3.22.92-3.6 1.27-.69.65-10.27 40.43-10.29 42.7 0 1.5.78 1.52 4.6.16m7.23-22.48c.32-1.64.59-3.67.59-4.51 0-2.46 1.6-.03 2.21 3.37.47 2.54.22 3.15-1.4 3.59-1.77.47-1.92.2-1.4-2.45m261.32 3.59c.06-7.02-.6-11.2-1.76-11.2-.36 0-1.43.58-2.38 1.29-1.64 1.22-1.64 1.73-.09 11.92.9 5.85 1.87 11.3 2.17 12.1.79 2.1 1.99-6.15 2.06-14.11m-57.24-6.7v-20.8l-3.02-.61c-1.66-.34-3.1-.5-3.21-.37-.1.14-.48 9.3-.82 20.35l-.63 20.1 3.6.97c1.98.53 3.71 1.02 3.84 1.07s.24-9.26.24-20.7M91.05 78.79c2.03-.56 2.15-1.1 2.24-9.96l.09-9.38 3.1 9.5c1.71 5.23 3.34 9.74 3.63 10.03.28.29 1.38-2.45 2.45-6.1l3.35-11.48 1.42-4.87.1 9.82.1 9.83 3.58-.6 3.58-.6-.36-20.42c-.2-11.23-.47-20.55-.6-20.71-.15-.17-1.69.08-3.44.54-3.1.82-3.26 1.12-6.5 12.35l-3.34 11.51-3.47-10.6c-3.43-10.45-3.5-10.58-6.25-10.26-1.53.18-3.08.62-3.45.98-.36.35-.8 9.73-.95 20.84-.32 21.82-.52 21 4.72 19.58m167.43-20.74c0-11.21-.33-20.58-.72-20.83-.4-.24-2-.6-3.58-.78l-2.87-.35-.28 7.55c-.27 7.48-.3 7.54-2.86 7.53-6.45-.04-6.79-.47-7.1-9.1l-.27-7.92-3.1-.3-3.1-.31v20.4c0 21.8-.06 21.57 4.81 21.57 1.61 0 1.83-.94 2.07-9l.28-9 3.82.34c2.1.18 4.14.53 4.54.78s.71 4.56.71 9.58v9.13l3.1.39c1.72.21 3.44.46 3.83.55.4.08.72-9.02.72-20.23m-121.6 13.99c6.26-2.59 8.93-12.18 5.16-18.49-1.54-2.57-1.6-3.23-.47-4.8 1.79-2.5 1.66-10.25-.22-12.99-2.31-3.36-5.74-4.25-13.5-3.5l-6.95.66v41.67l6.45-.64c3.55-.35 7.84-1.21 9.54-1.91zm-8.9-6.64c-.28-.74-.38-3.26-.21-5.6.27-3.84.55-4.27 2.98-4.56 3.75-.43 5.44 1.37 5.44 5.82 0 3.18-.4 3.95-2.45 4.74-3.39 1.31-5.16 1.19-5.76-.4m-.39-21.41c0-3.71.3-4.36 2.31-4.87 3.23-.82 5.25.19 5.93 2.96.77 3.12-1.96 6.18-5.52 6.18-2.58 0-2.72-.23-2.72-4.27m95.92 28.47c3.46-1.6 5.35-6.46 5.35-13.75v-6.3l-4.43-.61c-6.96-.97-7.03-.94-7.03 2.79 0 2.75.36 3.4 1.9 3.4 2.78 0 2.82 7.37.04 8.26-4.85 1.57-7.66-3.87-7.67-14.86 0-8.16 1.92-12.86 5.28-12.86 1.94 0 2.78.7 3.63 2.98 1.02 2.76 1.36 2.94 4.45 2.35 1.84-.35 3.48-.77 3.65-.93s-.33-1.8-1.08-3.65c-4.2-10.22-16.58-11-20.79-1.3-2.54 5.85-3.3 15.23-1.84 22.44 1.61 7.9 6.5 13.14 12.27 13.14 2.14 0 4.96-.5 6.27-1.1m-58.1-1.7c4.26-2.65 6.4-8.01 6.89-17.24.79-14.85-3.86-23.75-12.4-23.75-3.07 0-4.47.64-7 3.22-4.22 4.3-5.53 9.76-5.08 21.13.29 7.42.78 9.96 2.47 12.74 3.5 5.77 9.58 7.34 15.12 3.9m-7.63-6.49c-4.9-4.99-4.04-25.15 1.16-27.19 6.09-2.37 8.97 20.62 3.38 26.92-1.93 2.17-2.64 2.21-4.54.28m43.37 7.53c0-.43-1.28-4.65-2.85-9.38l-2.85-8.59 2.96-3.43c2.69-3.11 2.92-3.9 2.53-8.63-.71-8.76-5.47-11.98-17.7-12h-5.97V71.6h7.64v-8.76c0-11.68 1.6-11.7 5.71-.06 2.71 7.66 3.39 8.76 5.61 9.1 4.52.71 4.92.7 4.92-.1m-16.24-29.61v-5.22l3.31.4c4.17.5 5.5 2.11 5.12 6.2-.29 3.05-.54 3.25-4.37 3.53l-4.06.3zM31.06 50.93c.07-1.29-3.29-.78-5.55.83l-2.2 1.57 2.18 2.36 2.18 2.36 1.68-3.2c.92-1.76 1.69-3.52 1.7-3.92"/><path fill="#040404" d="M161 370.03C93.83 318.56 52.3 255.37 33.03 175.36 25.3 143.18 20.6 103.43 20.6 70.04c0-18.22 1.28-20.23 16.97-26.57 50.4-20.4 125.2-27.58 197.99-19.02 36.83 4.34 83.44 17.9 90.78 26.41 2.98 3.46 3.67 5.42 1.65 4.68-.66-.24-2.18.33-3.38 1.28-2.19 1.72-2.2 1.74-.8 9.96.75 4.53 1.68 12.94 2.06 18.7.37 5.75 1 10.46 1.4 10.46 1.26 0 1.89-6.92 2.11-23.36l.22-16.06.34 13.14c.62 24.68-2.96 61.37-8.89 91.06-11.05 55.39-32.54 103.25-65.06 144.96-20.5 26.3-72.37 73.48-80.77 73.48-1.42 0-6.87-3.5-14.21-9.13zm23.05 1.2c12.46-8.2 24.65-18.63 38.71-33.13 19.29-19.9 30.46-33.17 34.33-40.79 1.18-2.32 1.12-2.77-.54-4.3-1.8-1.67-2.24-1.33-15.01 11.51-15.97 16.06-27.01 25.14-27.01 22.2 0-1.73-12.37-8.87-19.75-11.4-13.19-4.5-27.5-4.1-39.2 1.13l-4.97 2.22-1.59-5.53c-4.49-15.59-7.01-36.31-4.62-37.9.58-.4 2.25-3.44 3.71-6.78a27 27 0 0 1 7.64-10.4c3-2.62 5.32-5.57 5.85-7.46.9-3.2 5.13-7.23 6.93-6.6 1.56.55-1.87 7.5-6.22 12.63-2.09 2.46-4.37 5.88-5.07 7.6-1.1 2.72-1.07 3.34.27 4.7 1.41 1.44 1.6 1.42 2.24-.3.65-1.71.76-1.66 1.27.55.74 3.18 3.58 3.55 8.9 1.15 3.72-1.67 4.27-2.34 4.81-5.77.34-2.14 1.3-4.46 2.12-5.17 1.02-.86 1.44-2.57 1.28-5.23-.26-4.15.8-9.31 1.9-9.31 1.15 0 3.73 5.25 4.42 9a17 17 0 0 0 2.55 6.1c1.78 2.3 2.36 2.42 11.72 2.42h9.85l2.72-3.63c2.1-2.82 2.75-4.78 2.87-8.73.2-6.9 3.69-12.75 10.62-17.81l5.45-3.97 1.55 2.1c.86 1.15 2.47 4.68 3.58 7.84 1.59 4.49 1.82 6.32 1.06 8.35-.53 1.43-1.13 5.25-1.33 8.5-.2 3.23-.65 7.46-1 9.4-.55 3.05-.3 3.77 1.97 5.59 3.3 2.64 4.11 2.62 5.19-.1.62-1.59.88-1.74.92-.55.1 2.78 2 3.06 4.51.65 2.04-1.95 2.31-2.87 1.82-6.18a803 803 0 0 1-1.39-10.22c-.45-3.48-1.14-7.11-1.53-8.07-.4-.95-.17-5.77.5-10.71 1.15-8.55 1.11-9.16-.84-13.06-2.8-5.6-2.62-6.47.97-4.58 4.14 2.18 13.37 2.93 17.04 1.38 3.12-1.32 6.7-5.26 6.7-7.38 0-.96-1.17-1.15-4.55-.76-3.77.44-5.05.15-7.55-1.75l-6.94-5.2c-3.74-2.77-3.9-3.11-3.4-6.92.3-2.28-.15-7.06-1.04-11.08-.87-3.89-1.32-8.43-1-10.1a719 719 0 0 1 1.51-7.71c1.3-6.45-.25-13.05-4.7-19.92-2-3.07-4.17-7.33-4.84-9.47a29 29 0 0 0-3.06-6.58c-1.78-2.6-1.79-2.88-.23-7.65 3.07-9.42-.1-17.07-8.85-21.42-4.25-2.1-6.16-2.31-27.97-2.95-20.97-.62-31.87-1.67-34.47-3.3-1.77-1.12-.85-4.39 1.57-5.5 2.05-.96 3.77-.7 10.74 1.67 8.9 3.01 18.24 3.63 23.41 1.55 3.44-1.38 2.67-2.6-2.13-3.39-2.08-.34-4.05-1.05-4.38-1.58-.8-1.34 1.23-1.22 8.54.5 5.91 1.4 11.05 1.17 11.05-.49 0-1.07-8.07-4.45-14.95-6.25-7.76-2.05-21.63-2.02-27.93.06-5.8 1.9-12.06 7.07-12.95 10.67-.8 3.25 1.88 6.39 6.9 8.07 2 .68 15.18 1.73 30.3 2.43 28.43 1.3 31.02 1.8 34.34 6.63 2.18 3.17 1.86 8-.73 11.06-2.17 2.57-2.32 2.6-7.4 1.45-2.85-.64-10.8-3.02-17.65-5.3-9.65-3.2-13.09-3.94-15.28-3.33-1.56.44-6.06 3.64-10 7.1a105 105 0 0 1-16.51 11.33c-13.17 7.07-17.2 12.56-18.83 25.64-.92 7.36-2.5 11.16-9.15 21.9-4.53 7.31-7.1 14.73-7.1 20.54 0 2.99-1.3 8.82-3.34 15.06-2.82 8.6-3.34 11.54-3.34 18.84 0 7.32-.37 9.38-2.39 13.37a34 34 0 0 0-2.93 9.58c-.9 8.02-1.1 8.53-6.1 14.55-2.66 3.2-4.83 6.59-4.83 7.55s-.41 1.74-.92 1.74c-1.6 0-5.76 7.15-5.76 9.9 0 3.68 1.83 4.45 3.94 1.68l1.77-2.33-.59 3.16c-.5 2.75-.32 3.16 1.4 3.16 1.38 0 2.8 1.44 4.59 4.63 10.1 18.03 32.42 44.52 49.08 58.28 8.4 6.94 19.94 14.95 21.52 14.95.61 0 3.86-1.8 7.23-4.02m-65.09-89.8c.53-1.4.9-4.7.85-7.35-.09-3.94.4-5.45 2.75-8.5 3.64-4.7 5.5-8.43 6.93-13.89 1.24-4.66 11.2-24.36 12.32-24.36 2 0 2.98 2.93 2.98 8.9 0 4.93.37 6.79 1.48 7.42 2.43 1.38-1.04 11.3-5.5 15.7-5.78 5.72-8.7 8.27-11.48 10.05-1.9 1.21-2.8 2.77-3.24 5.6-.34 2.15-.96 3.91-1.37 3.91s-2.1 1.14-3.72 2.53l-2.95 2.53zm65.95-190.36c-1.18-.78-1.1-.93.48-.89 1.05.03 2.77.43 3.82.9 1.75.76 1.71.83-.48.88a8 8 0 0 1-3.82-.89M49.61 214.92a584 584 0 0 1-7.5-27.98c-8.02-33.01-10.7-55.26-13.46-111.57-.47-9.58-1-12.98-2.4-15.33-2.13-3.56-3.72-3.91-3.82-.84-1.22 39.95 5.25 90.78 16.27 127.88 4.78 16.1 12.6 38.3 13.48 38.3.37 0-.79-4.7-2.58-10.46m29.73-57.15c18.6-4.99 35.93-19.57 44.04-37.01 1-2.14 1.84-4.11 1.88-4.38s.9-3.12 1.88-6.33c1.34-4.33 1.82-8.86 1.85-17.52.04-13.1-.66-16.97-3.09-17.15-.9-.06.8-.49 3.82-.93 10.37-1.55 14.11-5.36 14.11-14.37 0-3.29-.58-5.53-1.83-7.1-1.72-2.15-1.73-2.41-.24-4.1 1.04-1.18 1.6-3.5 1.6-6.65 0-4.24-.4-5.2-3.13-7.69-3.29-2.99-7.55-3.6-15.74-2.21l-3.59.6v12.93c0 7.12-.26 13.63-.58 14.47-.31.85-1.6 1.54-2.86 1.54h-2.29v-14.1c0-14-.02-14.12-2.15-14.1-5.57.03-5.97.57-9.35 12.4l-3.22 11.3-3.35-10.4-3.36-10.41-3.38.62c-1.85.34-3.7.8-4.09 1.03-.4.23-.72 6.48-.72 13.88v13.47l-2.52.64c-1.4.36-2.83.3-3.2-.14-.38-.43-2.02-5.98-3.65-12.33-1.62-6.36-3.15-11.75-3.38-11.99-.24-.24-1.95-.14-3.8.21l-3.39.65-2.51 10.85c-4.54 19.63-3.66 17.81-9.32 19.16-2.76.65-6.4 1.77-8.11 2.48l-3.1 1.28V63.18c0-11.67-.18-13.12-1.53-12.6-.84.33-2.58.87-3.87 1.2l-2.35.6.37 22.02c.4 24.3 1.63 33.09 7.75 55.72 4.67 17.27 8.89 28.03 11.42 29.15 2.85 1.27 18.07.35 24.98-1.5M67.78 64.23c.32-.85.58-2.47.58-3.6 0-2.66 1.46-1.08 2.28 2.46.53 2.28.32 2.68-1.41 2.68-1.46 0-1.87-.44-1.45-1.54M128.55 61c0-4.05.3-4.83 2.06-5.3 3.32-.88 5.58.96 5.58 4.54 0 3.9-1.46 5.52-4.97 5.52-2.56 0-2.67-.2-2.67-4.76m-34.72 3.14c-.35-.36-.62-1.35-.6-2.2.02-1.26.2-1.22 1.04.24 1.03 1.8.73 3.14-.44 1.96m12.9-3.25c0-1.34.21-1.88.47-1.21a3.8 3.8 0 0 1 0 2.43c-.26.67-.48.12-.48-1.22m21.82-17.03c0-4.36.01-4.38 3.34-4.38 3.36 0 3.9.77 3.39 4.87-.23 1.89-2.8 3.89-5 3.89-1.42 0-1.73-.8-1.73-4.38M312.87 132c2.68-6.81 6.76-31.54 6.7-40.69-.01-3.48-.72-7.07-1.87-9.5-1.53-3.22-1.85-6.07-1.88-16.62l-.03-12.73-3.32-1.04-3.31-1.03-.27 11.82c-.25 11.2-.37 11.8-2.18 11.53-4.3-.65-4.3-.62-4.3-13.67V47.52l-2.98-.6c-1.64-.34-3.36-.62-3.82-.62s-.86 4.27-.88 9.5l-.03 9.48-4.36-10.7c-2.4-5.9-4.63-11-4.98-11.34-.34-.34-2.02-.92-3.73-1.3l-3.1-.66v12.73c0 12.64-.02 12.73-2.2 12.73-4 0-4.49-1.6-4.49-14.68 0-11.98-.06-12.36-2.15-12.93-5.6-1.53-5.5-1.76-5.5 12.64v13.25l-2.14-.59a19 19 0 0 0-2.87-.6c-.4 0-.71-6.09-.71-13.51v-13.5l-2.99-.62c-1.64-.33-3.36-.6-3.82-.6s-.84 3.5-.84 7.78c0 8.4.06 8.33-5.57 7.19l-2.95-.6-.28-7.92-.27-7.91-3.59-.3-3.58-.3v41.75l3.38.4c1.85.22 3.57.2 3.82-.06.24-.25.44-4.32.44-9.05 0-9.3-.1-9.15 5.62-7.99l2.98.6.06 7.43c.07 8.24 1.4 26.78 2.14 29.8 3.7 15.08 15.56 29.02 29.46 34.61 7.36 2.97 11.68 3.7 21.09 3.58 7.99-.1 8.36-.21 9.3-2.6M286.7 68.44c-1-3.34-1.23-5.54-.53-5.1 1.28.8 2.88 6.32 1.83 6.32-.51 0-1.1-.55-1.3-1.22m-61.92 3.59c3.08-2.05 4.07-5.23 4.07-13.02 0-7.4-.4-7.8-7.88-7.83-3.55 0-3.58.03-3.58 3.88 0 3.25.31 3.9 1.9 3.9 1.48 0 1.92.65 1.92 2.8 0 4.1-2.22 5.64-5.24 3.63-3.01-2.02-3.84-5.08-3.84-14.26 0-11.15 4.25-16.32 7.93-9.66 1.39 2.52 2.11 2.9 4.97 2.67 3-.24 3.32-.55 3.16-2.96-.42-6.33-7.94-11.64-14.2-10.03-3.76.96-7.65 5.64-8.9 10.69-2.34 9.44-.59 22.53 3.76 28.16 3.44 4.47 10.86 5.41 15.93 2.03m-58.2-1.88c4-3.44 6.04-9.36 6.19-17.99.24-14.25-4.2-22.4-12.23-22.4-8.46 0-13.36 8.03-13.36 21.9 0 9.01 2.17 15.96 5.92 18.96 3.57 2.86 9.84 2.64 13.47-.47m-9.5-6.96c-.86-1.06-1.4-4.82-1.59-10.95-.3-10.33.81-14 4.38-14.52 3.5-.52 5.27 5.22 4.79 15.54-.41 8.7-1.54 11.54-4.6 11.54-.92 0-2.26-.73-2.98-1.61m27.62.39c.37-11.38 1.93-11.32 5.99.24l3.07 8.76h4.17c2.3 0 4.15-.1 4.14-.24s-1.45-4.34-3.18-9.35l-3.14-9.1 2.7-2.75c2.24-2.28 2.7-3.57 2.7-7.64 0-10.09-3.3-12.96-15.53-13.57l-8.36-.41v20.96c0 22.34-.04 22.18 4.77 21.8 2.33-.18 2.4-.4 2.67-8.7m.2-21.17c0-4.86.01-4.87 3.16-4.87 3.8 0 5.44 1.48 5.44 4.87s-1.65 4.87-5.44 4.87c-3.15 0-3.16-.01-3.16-4.87M29.2 56.7c0-.65 1.09-2.81 2.42-4.81 1.94-2.91 2.12-3.63.92-3.63-1.66 0-9.08 3.63-9.08 4.44 0 .28.93 1.78 2.07 3.35 2 2.75 3.67 3.05 3.67.65m55.6-22.53c40-6.57 79.63-8.63 121.6-6.32 17.15.94 46.23 3.82 57.8 5.72 5.02.82 6.65.7 5.54-.44-.82-.83-23.24-5.08-35.16-6.66-22.35-2.97-40.04-3.77-72.08-3.26-33.34.53-47.42 1.77-69.31 6.11-16.22 3.22-29.88 7.25-24.56 7.25.86 0 8.13-1.08 16.17-2.4"/></svg>